<?xml version="1.0" encoding="UTF-8" standalone="no"?>
<!-- Created with Inkscape (http://www.inkscape.org/) -->

<svg
   width="438.63083mm"
   height="438.62057mm"
   viewBox="0 0 438.63083 438.62057"
   version="1.1"
   id="svg1"
   inkscape:version="1.4 (86a8ad7, 2024-10-11)"
   sodipodi:docname="Aiv3.svg"
   xmlns:inkscape="http://www.inkscape.org/namespaces/inkscape"
   xmlns:sodipodi="http://sodipodi.sourceforge.net/DTD/sodipodi-0.dtd"
   xmlns="http://www.w3.org/2000/svg"
   xmlns:svg="http://www.w3.org/2000/svg">
  <sodipodi:namedview
     id="namedview1"
     pagecolor="#ffffff"
     bordercolor="#000000"
     borderopacity="0.25"
     inkscape:showpageshadow="2"
     inkscape:pageopacity="0.0"
     inkscape:pagecheckerboard="0"
     inkscape:deskcolor="#d1d1d1"
     inkscape:document-units="mm"
     inkscape:zoom="0.29"
     inkscape:cx="827.58621"
     inkscape:cy="684.48276"
     inkscape:window-width="1600"
     inkscape:window-height="833"
     inkscape:window-x="-9"
     inkscape:window-y="-9"
     inkscape:window-maximized="1"
     inkscape:current-layer="layer1" />
  <defs
     id="defs1">
    <linearGradient
       id="linearGradient870"
       spreadMethod="pad"
       gradientTransform="matrix(678.16552,125.75253,-125.75253,678.16552,634.20955,-105.84629)"
       gradientUnits="userSpaceOnUse"
       y2="0"
       x2="1"
       y1="0"
       x1="0">
      <stop
         id="stop860"
         offset="0"
         style="stop-opacity:1;stop-color:#13e5da" />
      <stop
         id="stop862"
         offset="0.169302"
         style="stop-opacity:1;stop-color:#13e5da" />
      <stop
         id="stop864"
         offset="0.39315"
         style="stop-opacity:1;stop-color:#1e7bd6" />
      <stop
         id="stop866"
         offset="0.639665"
         style="stop-opacity:1;stop-color:#4935bc" />
      <stop
         id="stop868"
         offset="1"
         style="stop-opacity:1;stop-color:#9b27cc" />
    </linearGradient>
    <linearGradient
       id="linearGradient846"
       spreadMethod="pad"
       gradientTransform="matrix(652.33416,120.96261,-120.96261,652.33416,577.21886,-83.998207)"
       gradientUnits="userSpaceOnUse"
       y2="0"
       x2="1"
       y1="0"
       x1="0">
      <stop
         id="stop836"
         offset="0"
         style="stop-opacity:1;stop-color:#13e5da" />
      <stop
         id="stop838"
         offset="0.169302"
         style="stop-opacity:1;stop-color:#13e5da" />
      <stop
         id="stop840"
         offset="0.39315"
         style="stop-opacity:1;stop-color:#1e7bd6" />
      <stop
         id="stop842"
         offset="0.639665"
         style="stop-opacity:1;stop-color:#4935bc" />
      <stop
         id="stop844"
         offset="1"
         style="stop-opacity:1;stop-color:#9b27cc" />
    </linearGradient>
    <linearGradient
       id="linearGradient822"
       spreadMethod="pad"
       gradientTransform="matrix(636.20888,117.9725,-117.9725,636.20888,537.18598,-46.359297)"
       gradientUnits="userSpaceOnUse"
       y2="0"
       x2="1"
       y1="0"
       x1="0">
      <stop
         id="stop812"
         offset="0"
         style="stop-opacity:1;stop-color:#13e5da" />
      <stop
         id="stop814"
         offset="0.169302"
         style="stop-opacity:1;stop-color:#13e5da" />
      <stop
         id="stop816"
         offset="0.39315"
         style="stop-opacity:1;stop-color:#1e7bd6" />
      <stop
         id="stop818"
         offset="0.639665"
         style="stop-opacity:1;stop-color:#4935bc" />
      <stop
         id="stop820"
         offset="1"
         style="stop-opacity:1;stop-color:#9b27cc" />
    </linearGradient>
    <linearGradient
       id="linearGradient798"
       spreadMethod="pad"
       gradientTransform="matrix(611.9333,113.47106,-113.47106,611.9333,481.37127,-13.718938)"
       gradientUnits="userSpaceOnUse"
       y2="0"
       x2="1"
       y1="0"
       x1="0">
      <stop
         id="stop788"
         offset="0"
         style="stop-opacity:1;stop-color:#13e5da" />
      <stop
         id="stop790"
         offset="0.169302"
         style="stop-opacity:1;stop-color:#13e5da" />
      <stop
         id="stop792"
         offset="0.39315"
         style="stop-opacity:1;stop-color:#1e7bd6" />
      <stop
         id="stop794"
         offset="0.639665"
         style="stop-opacity:1;stop-color:#4935bc" />
      <stop
         id="stop796"
         offset="1"
         style="stop-opacity:1;stop-color:#9b27cc" />
    </linearGradient>
    <linearGradient
       id="linearGradient774"
       spreadMethod="pad"
       gradientTransform="matrix(596.63576,110.63443,-110.63443,596.63576,445.5011,10.635247)"
       gradientUnits="userSpaceOnUse"
       y2="0"
       x2="1"
       y1="0"
       x1="0">
      <stop
         id="stop764"
         offset="0"
         style="stop-opacity:1;stop-color:#13e5da" />
      <stop
         id="stop766"
         offset="0.169302"
         style="stop-opacity:1;stop-color:#13e5da" />
      <stop
         id="stop768"
         offset="0.39315"
         style="stop-opacity:1;stop-color:#1e7bd6" />
      <stop
         id="stop770"
         offset="0.639665"
         style="stop-opacity:1;stop-color:#4935bc" />
      <stop
         id="stop772"
         offset="1"
         style="stop-opacity:1;stop-color:#9b27cc" />
    </linearGradient>
    <linearGradient
       id="linearGradient750"
       spreadMethod="pad"
       gradientTransform="matrix(568.98751,105.50761,-105.50761,568.98751,381.97287,47.624071)"
       gradientUnits="userSpaceOnUse"
       y2="0"
       x2="1"
       y1="0"
       x1="0">
      <stop
         id="stop740"
         offset="0"
         style="stop-opacity:1;stop-color:#13e5da" />
      <stop
         id="stop742"
         offset="0.169302"
         style="stop-opacity:1;stop-color:#13e5da" />
      <stop
         id="stop744"
         offset="0.39315"
         style="stop-opacity:1;stop-color:#1e7bd6" />
      <stop
         id="stop746"
         offset="0.639665"
         style="stop-opacity:1;stop-color:#4935bc" />
      <stop
         id="stop748"
         offset="1"
         style="stop-opacity:1;stop-color:#9b27cc" />
    </linearGradient>
    <linearGradient
       id="linearGradient726"
       spreadMethod="pad"
       gradientTransform="matrix(544.56774,100.97944,-100.97944,544.56774,326.11329,78.944182)"
       gradientUnits="userSpaceOnUse"
       y2="0"
       x2="1"
       y1="0"
       x1="0">
      <stop
         id="stop716"
         offset="0"
         style="stop-opacity:1;stop-color:#13e5da" />
      <stop
         id="stop718"
         offset="0.169302"
         style="stop-opacity:1;stop-color:#13e5da" />
      <stop
         id="stop720"
         offset="0.39315"
         style="stop-opacity:1;stop-color:#1e7bd6" />
      <stop
         id="stop722"
         offset="0.639665"
         style="stop-opacity:1;stop-color:#4935bc" />
      <stop
         id="stop724"
         offset="1"
         style="stop-opacity:1;stop-color:#9b27cc" />
    </linearGradient>
    <linearGradient
       id="linearGradient702"
       spreadMethod="pad"
       gradientTransform="matrix(517.78841,96.013733,-96.013733,517.78841,266.56947,104.044)"
       gradientUnits="userSpaceOnUse"
       y2="0"
       x2="1"
       y1="0"
       x1="0">
      <stop
         id="stop692"
         offset="0"
         style="stop-opacity:1;stop-color:#13e5da" />
      <stop
         id="stop694"
         offset="0.169302"
         style="stop-opacity:1;stop-color:#13e5da" />
      <stop
         id="stop696"
         offset="0.39315"
         style="stop-opacity:1;stop-color:#1e7bd6" />
      <stop
         id="stop698"
         offset="0.639665"
         style="stop-opacity:1;stop-color:#4935bc" />
      <stop
         id="stop700"
         offset="1"
         style="stop-opacity:1;stop-color:#9b27cc" />
    </linearGradient>
    <linearGradient
       id="linearGradient456"
       spreadMethod="pad"
       gradientTransform="matrix(196.6787,227.04846,-227.04846,196.6787,641.55543,-235.8036)"
       gradientUnits="userSpaceOnUse"
       y2="0"
       x2="1"
       y1="0"
       x1="0">
      <stop
         id="stop446"
         offset="0"
         style="stop-opacity:1;stop-color:#13e5da" />
      <stop
         id="stop448"
         offset="0.169302"
         style="stop-opacity:1;stop-color:#13e5da" />
      <stop
         id="stop450"
         offset="0.39315"
         style="stop-opacity:1;stop-color:#1e7bd6" />
      <stop
         id="stop452"
         offset="0.639665"
         style="stop-opacity:1;stop-color:#4935bc" />
      <stop
         id="stop454"
         offset="1"
         style="stop-opacity:1;stop-color:#9b27cc" />
    </linearGradient>
    <linearGradient
       id="linearGradient480"
       spreadMethod="pad"
       gradientTransform="matrix(104.31092,216.77047,-216.77047,104.31092,943.07953,-283.70419)"
       gradientUnits="userSpaceOnUse"
       y2="0"
       x2="1"
       y1="0"
       x1="0">
      <stop
         id="stop470"
         offset="0"
         style="stop-opacity:1;stop-color:#13e5da" />
      <stop
         id="stop472"
         offset="0.169302"
         style="stop-opacity:1;stop-color:#13e5da" />
      <stop
         id="stop474"
         offset="0.39315"
         style="stop-opacity:1;stop-color:#1e7bd6" />
      <stop
         id="stop476"
         offset="0.639665"
         style="stop-opacity:1;stop-color:#4935bc" />
      <stop
         id="stop478"
         offset="1"
         style="stop-opacity:1;stop-color:#9b27cc" />
    </linearGradient>
    <linearGradient
       id="linearGradient568"
       spreadMethod="pad"
       gradientTransform="matrix(101.65472,220.79805,-220.79805,101.65472,1067.2005,-438.05197)"
       gradientUnits="userSpaceOnUse"
       y2="0"
       x2="1"
       y1="0"
       x1="0">
      <stop
         id="stop560"
         offset="0"
         style="stop-opacity:1;stop-color:#13e5da" />
      <stop
         id="stop562"
         offset="0.28771"
         style="stop-opacity:1;stop-color:#1e7bd6" />
      <stop
         id="stop564"
         offset="0.639665"
         style="stop-opacity:1;stop-color:#4935bc" />
      <stop
         id="stop566"
         offset="1"
         style="stop-opacity:1;stop-color:#9b27cc" />
    </linearGradient>
    <linearGradient
       id="linearGradient634"
       spreadMethod="pad"
       gradientTransform="matrix(100.87746,219.10981,-219.10981,100.87746,1095.3006,-450.56188)"
       gradientUnits="userSpaceOnUse"
       y2="0"
       x2="1"
       y1="0"
       x1="0">
      <stop
         id="stop626"
         offset="0"
         style="stop-opacity:1;stop-color:#13e5da" />
      <stop
         id="stop628"
         offset="0.28771"
         style="stop-opacity:1;stop-color:#1e7bd6" />
      <stop
         id="stop630"
         offset="0.639665"
         style="stop-opacity:1;stop-color:#4935bc" />
      <stop
         id="stop632"
         offset="1"
         style="stop-opacity:1;stop-color:#9b27cc" />
    </linearGradient>
    <linearGradient
       id="linearGradient502"
       spreadMethod="pad"
       gradientTransform="matrix(99.817419,216.80736,-216.80736,99.817419,1010.4065,-410.89874)"
       gradientUnits="userSpaceOnUse"
       y2="0"
       x2="1"
       y1="0"
       x1="0">
      <stop
         id="stop494"
         offset="0"
         style="stop-opacity:1;stop-color:#13e5da" />
      <stop
         id="stop496"
         offset="0.28771"
         style="stop-opacity:1;stop-color:#1e7bd6" />
      <stop
         id="stop498"
         offset="0.639665"
         style="stop-opacity:1;stop-color:#4935bc" />
      <stop
         id="stop500"
         offset="1"
         style="stop-opacity:1;stop-color:#9b27cc" />
    </linearGradient>
    <clipPath
       clipPathUnits="userSpaceOnUse"
       id="clipPath2">
      <ellipse
         style="fill:#edd348;fill-opacity:0.855172;stroke-width:0.264198"
         id="ellipse2"
         cx="105.31329"
         cy="148.51338"
         rx="218.05315"
         ry="214.85991" />
    </clipPath>
  </defs>
  <g
     inkscape:label="Layer 1"
     inkscape:groupmode="layer"
     id="layer1"
     transform="translate(114.56459,70.908308)">
    <path
       id="path434"
       style="fill:#111111;fill-opacity:1;fill-rule:nonzero;stroke:none;stroke-width:0.0731293"
       d="M 324.06625,-26.185946 V 324.43943 c 0,23.86428 -19.48462,43.27285 -43.42285,43.27285 H -71.14907 c -23.938237,0 -43.41552,-19.40857 -43.41552,-43.27285 V -26.185946 c 0,-23.862818 19.477283,-43.273582 43.41552,-43.273582 H 280.6434 c 23.93823,0 43.42285,19.410764 43.42285,43.273582"
       sodipodi:nodetypes="csssssssc"
       clip-path="url(#clipPath2)"
       transform="translate(-0.91235632,1.8247126)" />
    <path
       id="path458"
       style="fill:url(#linearGradient456);fill-opacity:1;fill-rule:nonzero;stroke:none;stroke-width:0.0614437"
       d="M 40.421378,140.73236 62.811448,74.822362 85.213806,140.73236 Z M 80.550232,51.881757 H 70.608648 55.020391 45.078807 L -5.9870186,202.16742 H 19.542822 l 12.69426,-37.34853 h 31.01676 c 0.178186,0.007 0.356373,0.0283 0.528415,0.0283 0.184331,0 0.356374,-0.0215 0.528416,-0.0283 h 29.081284 l 12.694263,37.34853 h 25.52984 L 80.550232,51.881757" />
    <path
       id="path482"
       style="fill:url(#linearGradient480);fill-opacity:1;fill-rule:nonzero;stroke:none;stroke-width:0.0641625"
       d="M 151.84671,202.16834 V 98.259081 h 24.0866 V 202.16834 h -24.0866" />
    <path
       id="path504"
       style="fill:url(#linearGradient502);fill-opacity:1;fill-rule:nonzero;stroke:none;stroke-width:0.0653743"
       d="m 162.75661,18.501303 c -3.08566,32.153047 -29.92182,33.349397 -32.93557,33.38143 3.01375,0.03203 29.84991,1.228383 32.93557,33.38143 3.07913,-32.153047 29.92182,-33.349397 32.92904,-33.38143 -3.00722,-0.03203 -29.84991,-1.228383 -32.92904,-33.38143" />
    <path
       id="path570"
       style="fill:url(#linearGradient568);fill-opacity:1;fill-rule:nonzero;stroke:none;stroke-width:0.0665776"
       d="m 193.18934,64.62978 c -2.07057,21.589128 -20.08647,22.392054 -22.11043,22.413359 2.02396,0.02197 20.03986,0.824897 22.11043,22.414021 2.07056,-21.589124 20.08647,-22.39205 22.11043,-22.414021 -2.02396,-0.0213 -20.03987,-0.824231 -22.11043,-22.413359" />
    <path
       id="path636"
       style="fill:url(#linearGradient634);fill-opacity:1;fill-rule:nonzero;stroke:none;stroke-width:0.0660686"
       d="m 193.12769,12.544437 c -1.30155,13.544718 -12.59927,14.048821 -13.8744,14.062035 1.27513,0.01321 12.57285,0.517317 13.8744,14.061374 1.30155,-13.544057 12.60588,-14.04816 13.8744,-14.061374 -1.26852,-0.01321 -12.57285,-0.517317 -13.8744,-14.062035" />
    <path
       id="path704"
       style="fill:url(#linearGradient702);fill-opacity:1;fill-rule:nonzero;stroke:none;stroke-width:0.0531841"
       d="m -5.9563381,239.38576 -3.8505266,3.84202 c -2.7708903,-2.87194 -5.8077003,-5.04876 -9.1051133,-6.52994 -3.297412,-1.48171 -6.515048,-2.22629 -9.642271,-2.22629 -3.898393,0 -7.610641,1.00891 -11.136745,3.02671 -3.526104,2.01834 -6.259765,4.752 -8.195665,8.20258 -1.9359,3.45324 -2.90385,7.10114 -2.90385,10.94315 0,3.94041 1.005179,7.68297 3.010218,11.22876 1.999721,3.54525 4.77593,6.33581 8.307352,8.36425 3.542059,2.02845 7.413859,3.04107 11.626038,3.04107 5.110989,0 9.434854,-1.51681 12.976913,-4.55415 3.531422,-3.03788 5.6268744,-6.97456 6.2810385,-11.81484 H -24.437802 v -5.05515 h 21.422543 c -0.047866,8.09249 -2.3241439,14.51659 -6.8394714,19.27231 -4.5153276,4.75519 -10.5570376,7.13677 -18.1304496,7.13677 -9.190207,0 -16.465788,-3.29901 -21.826742,-9.89596 -4.121766,-5.07642 -6.179989,-10.95007 -6.179989,-17.61403 0,-4.95995 1.180686,-9.5742 3.547377,-13.84647 2.366691,-4.26856 5.605601,-7.60958 9.732685,-10.01882 4.116447,-2.40604 8.78069,-3.60907 13.987411,-3.60907 4.212178,0 8.174391,0.80095 11.891958,2.40233 3.717566,1.6019 7.3447197,4.17016 10.8761419,7.70477" />
    <path
       id="path728"
       style="fill:url(#linearGradient726);fill-opacity:1;fill-rule:nonzero;stroke:none;stroke-width:0.0559347"
       d="m 36.617759,259.67137 c -0.632062,-2.65634 -1.554984,-4.78018 -2.75758,-6.37096 -1.208189,-1.58743 -2.802327,-2.87169 -4.788009,-3.84159 -1.985681,-0.97383 -4.072044,-1.46102 -6.25909,-1.46102 -3.607787,0 -6.712162,1.22106 -9.301938,3.6654 -1.896185,1.77817 -3.328113,4.44849 -4.3013764,8.00817 z m 0,10.42455 3.982549,2.2083 c -1.308872,2.70612 -2.819108,4.88981 -4.530709,6.54771 -1.711601,1.66182 -3.641348,2.92427 -5.783646,3.79237 -2.142298,0.86419 -4.56427,1.29825 -7.271508,1.29825 -5.996198,0 -10.683524,-2.0707 -14.0675724,-6.21267 -3.3840482,-4.13805 -5.0732755,-8.81922 -5.0732755,-14.03681 0,-4.9105 1.4319278,-9.28851 4.2957834,-13.13402 3.6301605,-4.88589 8.4908845,-7.3308 14.5765775,-7.3308 6.270278,0 11.270838,2.50476 15.012868,7.51091 2.662491,3.53451 4.01611,7.94776 4.060858,13.23583 H 8.7399142 c 0.089495,4.49826 1.4543018,8.18492 4.0944188,11.06332 2.634523,2.87504 5.895515,4.31088 9.777382,4.31088 1.868218,0 3.691689,-0.34232 5.459225,-1.0264 1.773129,-0.68464 3.277772,-1.5947 4.519522,-2.73073 1.236156,-1.13212 2.584182,-2.96678 4.027297,-5.49614" />
    <path
       id="path752"
       style="fill:url(#linearGradient750);fill-opacity:1;fill-rule:nonzero;stroke:none;stroke-width:0.0584429"
       d="m 50.642368,244.22667 h 4.722188 v 6.93893 c 1.899396,-2.65623 3.991652,-4.64621 6.28846,-5.96176 2.296807,-1.31614 4.798164,-1.97537 7.498228,-1.97537 2.752662,0 5.189732,0.73696 7.317054,2.20797 2.127323,1.47101 3.699438,3.45047 4.716345,5.94072 1.011063,2.49084 1.519516,6.37145 1.519516,11.63833 v 19.92845 h -4.728033 v -18.46796 c 0,-4.4627 -0.181173,-7.44037 -0.525986,-8.93242 -0.555208,-2.56447 -1.601337,-4.49075 -3.155919,-5.78526 -1.554582,-1.29159 -3.582551,-1.94031 -6.083909,-1.94031 -2.863703,0 -5.423504,0.99821 -7.691089,2.99111 -2.261742,1.99349 -3.752036,4.4592 -4.476729,7.4018 -0.45001,1.92218 -0.677938,5.43227 -0.677938,10.53375 v 14.19929 h -4.722188 v -38.71727" />
    <path
       id="path776"
       style="fill:url(#linearGradient774);fill-opacity:1;fill-rule:nonzero;stroke:none;stroke-width:0.0612828"
       d="m 123.79097,259.67073 c -0.63121,-2.65661 -1.55046,-4.78005 -2.75773,-6.37095 -1.20727,-1.58784 -2.80062,-2.87172 -4.78618,-3.84182 -1.98557,-0.97379 -4.07531,-1.46098 -6.2631,-1.46098 -3.60956,0 -6.71047,1.22075 -9.30273,3.66593 -1.89364,1.77782 -3.321529,4.44852 -4.289797,8.00782 z m 0,10.42482 3.98338,2.20802 c -1.30532,2.70563 -2.81901,4.88975 -4.5288,6.54745 -1.71592,1.66199 -3.6402,2.92503 -5.78509,3.79279 -2.13877,0.86409 -4.56557,1.29797 -7.26814,1.29797 -5.99959,0 -10.687722,-2.07074 -14.070532,-6.21223 -3.376681,-4.13843 -5.074215,-8.81982 -5.074215,-14.03683 0,-4.9112 1.434018,-9.28924 4.295924,-13.13412 3.634069,-4.88608 8.487663,-7.33065 14.573043,-7.33065 6.26923,0 11.27604,2.50463 15.01429,7.5102 2.6658,3.5348 4.02015,7.94838 4.06305,13.23647 H 95.913427 c 0.09192,4.49755 1.45853,8.18432 4.093693,11.06339 2.64129,2.87477 5.8954,4.31063 9.78073,4.31063 1.86913,0 3.68922,-0.34196 5.4603,-1.02649 1.77107,-0.68453 3.2725,-1.59458 4.51654,-2.73076 1.23791,-1.13189 2.58,-2.9667 4.02628,-5.49584" />
    <path
       id="path800"
       style="fill:url(#linearGradient798);fill-opacity:1;fill-rule:nonzero;stroke:none;stroke-width:0.0628541"
       d="m 136.01963,244.22595 h 4.83348 v 5.65875 c 1.43936,-2.22943 2.96043,-3.8982 4.55692,-5.00255 1.60278,-1.10435 3.26841,-1.65432 5.00318,-1.65432 1.30737,0 2.70273,0.44061 4.19237,1.31554 l -2.47017,4.20179 c -0.99309,-0.45192 -1.82276,-0.67757 -2.4953,-0.67757 -1.57764,0 -3.09871,0.68134 -4.56321,2.04653 -1.4645,1.36519 -2.57701,3.48149 -3.34383,6.35329 -0.59083,2.20492 -0.87996,6.66756 -0.87996,13.381 v 13.09502 h -4.83348 v -38.71748" />
    <path
       id="path824"
       style="fill:url(#linearGradient822);fill-opacity:1;fill-rule:nonzero;stroke:none;stroke-width:0.0653475"
       d="m 176.34362,248.0325 c -2.62697,0 -5.0579,0.68092 -7.28625,2.04276 -2.22835,1.36511 -3.99926,3.27718 -5.31275,5.74339 -1.32002,2.46556 -1.98003,5.06901 -1.98003,7.82079 0,2.72368 0.66655,5.3304 1.9931,7.81752 1.32655,2.49105 3.11054,4.4273 5.35196,5.81397 2.23488,1.38667 4.63967,2.07805 7.20129,2.07805 2.58777,0 5.04483,-0.68484 7.35813,-2.06041 2.3133,-1.37556 4.10383,-3.2347 5.35196,-5.58067 1.24814,-2.34598 1.86894,-4.98863 1.86894,-7.92731 0,-4.48022 -1.39843,-8.22333 -4.20184,-11.23258 -2.79688,-3.00925 -6.24722,-4.51551 -10.34451,-4.51551 z m 18.90503,-3.80649 v 38.71774 h -4.65928 v -6.65369 c -1.98656,2.54006 -4.20838,4.44886 -6.67851,5.72902 -2.4636,1.28081 -5.16245,1.92318 -8.09002,1.92318 -5.20166,0 -9.64529,-1.98657 -13.33089,-5.96231 -3.67907,-3.97247 -5.52187,-8.80884 -5.52187,-14.50257 0,-5.57414 1.86241,-10.3432 5.57415,-14.30522 3.71827,-3.96137 8.18804,-5.94401 13.41584,-5.94401 3.01905,0 5.75058,0.677 8.19457,2.02839 2.444,1.35073 4.5874,3.37977 6.43673,6.08515 v -7.11568 h 4.65928" />
    <path
       id="path848"
       style="fill:url(#linearGradient846);fill-opacity:1;fill-rule:nonzero;stroke:none;stroke-width:0.0670038"
       d="m 210.01799,229.84688 h 4.73046 v 14.37968 h 7.49773 v 4.30365 h -7.49773 v 34.41382 h -4.73046 v -34.41382 h -6.45247 v -4.30365 h 6.45247 v -14.37968" />
    <path
       id="path872"
       style="fill:url(#linearGradient870);fill-opacity:1;fill-rule:nonzero;stroke:none;stroke-width:0.069657"
       d="m 260.29061,259.67062 c -0.63388,-2.65602 -1.54639,-4.77987 -2.75842,-6.37083 -1.20507,-1.58749 -2.80021,-2.87196 -4.78544,-3.84159 -1.98522,-0.9738 -4.06797,-1.4607 -6.2552,-1.4607 -3.60823,0 -6.71494,1.22039 -9.30618,3.66535 -1.89467,1.77765 -3.32264,4.4483 -4.29784,8.00777 z m 0,10.42487 3.98438,2.20813 c -1.30259,2.70617 -2.81414,4.88992 -4.52771,6.54776 -1.71356,1.66132 -3.64306,2.9242 -5.78153,3.79213 -2.14544,0.86444 -4.5695,1.29841 -7.27219,1.29841 -5.99747,0 -10.68539,-2.07091 -14.07072,-6.21271 -3.37837,-4.13763 -5.07104,-8.81928 -5.07104,-14.03659 0,-4.91082 1.42797,-9.28877 4.29088,-13.13384 3.63609,-4.88644 8.49119,-7.3307 14.57921,-7.3307 6.26914,0 11.27051,2.50417 15.01806,7.51042 2.65393,3.5344 4.00528,7.94787 4.05404,13.23623 h -33.07316 c 0.0836,4.49775 1.44887,8.1847 4.08887,11.06293 2.64,2.87544 5.89995,4.31107 9.77288,4.31107 1.87377,0 3.69879,-0.34201 5.46808,-1.02674 1.76929,-0.68404 3.27388,-1.59445 4.51377,-2.73056 1.2399,-1.13193 2.58428,-2.96669 4.02618,-5.49594" />
  </g>
</svg>
