<?xml version="1.0" encoding="UTF-8" standalone="no"?>
<!-- Created with Inkscape (http://www.inkscape.org/) -->

<svg
   width="135.22319mm"
   height="137.64552mm"
   viewBox="0 0 135.22319 137.64552"
   version="1.1"
   id="svg1"
   xml:space="preserve"
   inkscape:version="1.4 (86a8ad7, 2024-10-11)"
   sodipodi:docname="figmav2.svg"
   xmlns:inkscape="http://www.inkscape.org/namespaces/inkscape"
   xmlns:sodipodi="http://sodipodi.sourceforge.net/DTD/sodipodi-0.dtd"
   xmlns="http://www.w3.org/2000/svg"
   xmlns:svg="http://www.w3.org/2000/svg"><sodipodi:namedview
     id="namedview1"
     pagecolor="#ffffff"
     bordercolor="#000000"
     borderopacity="0.25"
     inkscape:showpageshadow="2"
     inkscape:pageopacity="0.0"
     inkscape:pagecheckerboard="0"
     inkscape:deskcolor="#d1d1d1"
     inkscape:document-units="mm"
     showgrid="false"
     inkscape:zoom="0.54787458"
     inkscape:cx="118.64029"
     inkscape:cy="167.00903"
     inkscape:window-width="1600"
     inkscape:window-height="833"
     inkscape:window-x="-9"
     inkscape:window-y="-9"
     inkscape:window-maximized="1"
     inkscape:current-layer="layer1" /><defs
     id="defs1"><linearGradient
       id="gradient_0"
       gradientUnits="userSpaceOnUse"
       x1="881.97089"
       y1="532.42053"
       x2="143.96353"
       y2="521.41534"><stop
         offset="0"
         stop-color="#20155E"
         id="stop1" /><stop
         offset="1"
         stop-color="#653C95"
         id="stop2" /></linearGradient><linearGradient
       id="gradient_1"
       gradientUnits="userSpaceOnUse"
       x1="433.36392"
       y1="229.38115"
       x2="131.07117"
       y2="289.61954"><stop
         offset="0"
         stop-color="#8F7CC6"
         id="stop3" /><stop
         offset="1"
         stop-color="#AD8CC9"
         id="stop4" /></linearGradient><linearGradient
       id="gradient_2"
       gradientUnits="userSpaceOnUse"
       x1="145.45056"
       y1="387.4404"
       x2="159.04944"
       y2="368.5596"><stop
         offset="0"
         stop-color="#AD9FD1"
         id="stop10" /><stop
         offset="1"
         stop-color="#EDE0F1"
         id="stop11" /></linearGradient><linearGradient
       id="gradient_3"
       gradientUnits="userSpaceOnUse"
       x1="970.64215"
       y1="586.86548"
       x2="783.22723"
       y2="593.94891"><stop
         offset="0"
         stop-color="#716DBC"
         id="stop12" /><stop
         offset="1"
         stop-color="#9B93CA"
         id="stop13" /></linearGradient><linearGradient
       id="gradient_4"
       gradientUnits="userSpaceOnUse"
       x1="676.5705"
       y1="864.44366"
       x2="484.72626"
       y2="808.27808"><stop
         offset="0"
         stop-color="#AB9CCE"
         id="stop20" /><stop
         offset="1"
         stop-color="#C7C1E2"
         id="stop21" /></linearGradient><linearGradient
       id="gradient_5"
       gradientUnits="userSpaceOnUse"
       x1="598.84796"
       y1="302.51074"
       x2="422.22247"
       y2="294.8624"><stop
         offset="0"
         stop-color="#2A1C67"
         id="stop22" /><stop
         offset="1"
         stop-color="#533287"
         id="stop23" /></linearGradient><linearGradient
       id="gradient_6"
       gradientUnits="userSpaceOnUse"
       x1="487.22214"
       y1="310.33276"
       x2="476.50314"
       y2="347.95685"><stop
         offset="0"
         stop-color="#D14FD0"
         id="stop32" /><stop
         offset="1"
         stop-color="#FF6DF8"
         id="stop33" /></linearGradient><linearGradient
       id="gradient_7"
       gradientUnits="userSpaceOnUse"
       x1="782.508"
       y1="673.03302"
       x2="604.36609"
       y2="669.97906"><stop
         offset="0"
         stop-color="#9C92C8"
         id="stop44" /><stop
         offset="1"
         stop-color="#BFB6DC"
         id="stop45" /></linearGradient><linearGradient
       id="gradient_8"
       gradientUnits="userSpaceOnUse"
       x1="878.53412"
       y1="590.13159"
       x2="784.01874"
       y2="595.1958"><stop
         offset="0"
         stop-color="#817DBF"
         id="stop54" /><stop
         offset="1"
         stop-color="#9B94CD"
         id="stop55" /></linearGradient><linearGradient
       id="gradient_9"
       gradientUnits="userSpaceOnUse"
       x1="768.30713"
       y1="743.12433"
       x2="694.23511"
       y2="707.06085"><stop
         offset="0"
         stop-color="#968AC6"
         id="stop62" /><stop
         offset="1"
         stop-color="#AFA6D2"
         id="stop63" /></linearGradient><linearGradient
       id="gradient_10"
       gradientUnits="userSpaceOnUse"
       x1="911.79871"
       y1="847.30695"
       x2="833.97864"
       y2="771.9726"><stop
         offset="0"
         stop-color="#38288A"
         id="stop73" /><stop
         offset="1"
         stop-color="#795BE1"
         id="stop74" /></linearGradient><linearGradient
       id="gradient_11"
       gradientUnits="userSpaceOnUse"
       x1="223.35559"
       y1="800.13391"
       x2="76.255768"
       y2="831.25574"><stop
         offset="0"
         stop-color="#5C49D3"
         id="stop77" /><stop
         offset="1"
         stop-color="#B266F1"
         id="stop78" /></linearGradient><linearGradient
       id="gradient_12"
       gradientUnits="userSpaceOnUse"
       x1="699.62903"
       y1="150.44341"
       x2="652.60748"
       y2="105.78121"><stop
         offset="0"
         stop-color="#343282"
         id="stop88" /><stop
         offset="1"
         stop-color="#8A74FF"
         id="stop89" /></linearGradient><linearGradient
       id="gradient_13"
       gradientUnits="userSpaceOnUse"
       x1="617.49768"
       y1="170.56097"
       x2="628.63428"
       y2="189.15941"><stop
         offset="0"
         stop-color="#7950C5"
         id="stop111" /><stop
         offset="1"
         stop-color="#9961CF"
         id="stop112" /></linearGradient></defs><g
     inkscape:label="Layer 1"
     inkscape:groupmode="layer"
     id="layer1"
     transform="translate(-73.259102,-104.08161)"><g
       id="g1"
       transform="matrix(0.1320539,0,0,0.13441946,73.259102,104.08161)"><path
         fill="#fefefe"
         d="M 0,0 H 1024 V 1024 H 0 Z"
         id="path1"
         style="fill:#fefefe;fill-opacity:0" /><path
         fill="url(#gradient_0)"
         d="m 140.333,342.263 c 0.842,-0.15 1.623,-0.365 2.444,-0.598 0.266,-6.38 -1.738,-13.509 -2.335,-19.947 -1.525,-16.45 -1.108,-32.853 1.954,-49.111 8.428,-42.599 33.24,-80.187 69.098,-104.68 33.177,-22.56 76.533,-31.899 116.05,-24.249 44.753,8.664 78.711,31.759 104.102,69.365 l 0.24,-0.018 c 4.091,-3.59 9.109,-6.678 13.546,-9.864 18.746,-13.463 33.131,-21.612 56.517,-24.868 24.124,-1.737 44.11,0.9 65.003,13.762 4.255,2.64 19.799,11.808 22.142,15.111 l 2.286,1.386 c 1.578,0.037 2.09,-0.761 3.304,-1.718 l 1.023,0.277 -1.444,1.641 c 1.238,0.19 2.765,-0.455 3.551,-0.068 -0.775,0.954 -1.923,1.86 -1.928,3.102 6.715,5.484 13.987,10.311 20.917,15.523 14.833,11.343 29.818,22.484 44.952,33.421 8.283,-5.587 16.662,-10.171 25.981,-13.847 2.704,-15.854 10.093,-28.248 23.326,-37.646 11.744,-8.34 27.13,-11.354 41.247,-8.82 12.935,2.322 25.271,9.586 32.816,20.454 8.035,11.571 11.911,26.796 9.478,40.805 -1.755,10.104 -8.753,19.294 -14.398,27.557 9.272,21.832 6.486,38.585 6.856,61.19 4.99,3.68 9.936,7.42 14.836,11.219 2.719,2.12 5.599,4.921 8.596,6.584 7.297,6.425 15.087,12.315 22.56,18.542 21.279,17.296 43.835,34.227 46.781,63.681 0.994,10.65 -0.1,21.393 -3.219,31.625 0.339,-0.031 0.679,-0.059 1.018,-0.094 6.963,-0.72 14.441,-3.263 21.28,-4.887 16.457,-3.906 49.297,-11.049 63.267,0.03 3.723,2.953 5.344,7.433 5.75,12.045 2.89,32.807 -37.525,85.057 -58.125,109.223 -26.681,31.3 -57.002,59.754 -88.21,86.488 -10.589,9.071 -22.987,19.994 -34.54,27.638 0.129,19.78 -7.632,34.825 -21.507,48.794 -13.138,13.226 -29.244,20.927 -48.035,20.942 -4.631,0.004 -9.239,-0.519 -13.808,-1.244 l -0.619,0.396 c -9.413,6.102 -17.858,14.207 -26.84,20.984 -28.597,21.983 -58.002,42.895 -88.153,62.693 -18.136,11.794 -36.263,23.445 -56.286,31.872 -12.546,5.28 -27.756,10.71 -41.511,7.862 -6.405,-1.326 -12.197,-4.741 -15.755,-10.324 -7.205,-11.303 -5.104,-28.544 -2.63,-40.944 0.892,-4.474 2.405,-9.198 2.791,-13.71 -15.688,-6.6 -30.362,-17.882 -44.395,-27.51 -2.098,1.8 -4.712,2.641 -7.308,3.453 -8.979,2.81 -18.789,3.23 -28.142,3.547 -47.723,1.614 -80.756,-15.597 -122.093,-35.806 -9.547,-4.668 -19.436,-8.612 -28.874,-13.495 -13.754,-7.114 -25.754,-16.194 -37.426,-26.298 -37.94,-32.842 -68.565,-76.194 -83.808,-124.166 25.376,33.723 56.919,60.69 90.815,85.496 7.876,5.764 16.091,12.881 25.148,16.554 -0.708,-14.527 -0.371,-29.265 -0.505,-43.815 -11.256,-8.467 -22.448,-17.017 -33.577,-25.649 -25.232,-19.785 -53.374,-42.885 -59.752,-76.098 -4.799,-24.986 1.984,-44.201 15.843,-64.68 -8.528,-13.304 -14.283,-26.098 -15.488,-42.099 -1.947,-25.864 9.381,-49.103 25.944,-68.161 -1.201,-2.341 -3.07,-4.48 -4.647,-6.587 l -1.505,0.394 c -0.59,2.077 -2.029,4.055 -3.129,5.91 -8.954,-8.016 -15.487,-16.425 -19.612,-27.739 -2.501,-0.115 -5.688,-0.517 -8.087,0.248 -5.59,1.783 -8.244,9.247 -10.774,13.998 -3.818,-4.349 -6.562,-9.508 -10.137,-14.058 -5.705,-0.426 -11.597,-0.237 -17.3248,-0.307 1.9597,-5.395 5.3518,-10.581 8.1818,-15.583 -1.503,-4.617 -4.9664,-9.765 -8.0931,-13.452 l 0.3895,-2.304 c 5.2626,-0.149 10.5586,-0.194 15.8136,-0.48 3.59,-5.217 6.735,-10.983 10.558,-15.988 2.853,4.679 7.758,15.036 13.36,16.551 0.898,0.243 1.84,0.297 2.76,0.392 l 0.92,0.103 c 0.192,0.02 0.384,0.036 0.575,0.054 z"
         id="path2"
         style="fill:url(#gradient_0)" /><path
         fill="url(#gradient_1)"
         d="m 140.333,342.263 c 0.842,-0.15 1.623,-0.365 2.444,-0.598 0.266,-6.38 -1.738,-13.509 -2.335,-19.947 -1.525,-16.45 -1.108,-32.853 1.954,-49.111 8.428,-42.599 33.24,-80.187 69.098,-104.68 33.177,-22.56 76.533,-31.899 116.05,-24.249 44.753,8.664 78.711,31.759 104.102,69.365 l 0.24,-0.018 c 0.833,0.423 1.872,0.726 2.402,1.498 l -1.279,1.343 c -13.78,10.592 -28.297,20.62 -42.633,30.446 -8.969,6.072 -17.757,12.409 -26.747,18.451 l -0.819,0.504 -2.386,-1.773 -3.898,1.995 c -4.026,3.936 -9.125,7.273 -13.696,10.561 -8.884,6.323 -17.814,12.58 -26.79,18.771 -24.755,17.338 -49.452,34.888 -73.867,52.704 -1.473,1.177 -2.965,2.598 -4.625,3.483 -7.957,6.657 -16.647,12.361 -25.085,18.377 -13.782,10.928 -28.631,19.36 -41.379,31.726 -1.201,-2.341 -3.07,-4.48 -4.647,-6.587 l -1.505,0.394 c -0.59,2.077 -2.029,4.055 -3.129,5.91 -8.954,-8.016 -15.487,-16.425 -19.612,-27.739 -2.501,-0.115 -5.688,-0.517 -8.087,0.248 -5.59,1.783 -8.244,9.247 -10.774,13.998 -3.818,-4.349 -6.562,-9.508 -10.137,-14.058 -5.705,-0.426 -11.597,-0.237 -17.3248,-0.307 1.9597,-5.395 5.3518,-10.581 8.1818,-15.583 -1.503,-4.617 -4.9664,-9.765 -8.0931,-13.452 l 0.3895,-2.304 c 5.2626,-0.149 10.5586,-0.194 15.8136,-0.48 3.59,-5.217 6.735,-10.983 10.558,-15.988 2.853,4.679 7.758,15.036 13.36,16.551 0.898,0.243 1.84,0.297 2.76,0.392 l 0.92,0.103 c 0.192,0.02 0.384,0.036 0.575,0.054 z"
         id="path4"
         style="fill:url(#gradient_1)" /><path
         fill="#e3e2ef"
         d="m 212.463,369.385 c -3.637,-3.269 -6.499,-8.106 -8.899,-12.337 -14.369,-25.7 -18.073,-56.014 -10.313,-84.418 8.056,-28.508 28.332,-51.617 54.013,-65.945 24.809,-13.548 53.936,-16.848 81.147,-9.192 25.091,7.131 47.004,23.477 59.832,46.287 -9.357,6.286 -18.181,13.398 -27.743,19.381 l -0.076,0.333 -3.898,1.995 c -4.026,3.936 -9.125,7.273 -13.696,10.561 -8.884,6.323 -17.814,12.58 -26.79,18.771 -24.755,17.338 -49.452,34.888 -73.867,52.704 -1.473,1.177 -2.965,2.598 -4.625,3.483 -7.957,6.657 -16.647,12.361 -25.085,18.377 z"
         id="path5" /><path
         fill="#e3e2ef"
         d="m 242.173,347.525 c -0.631,-6.332 -0.196,-13.063 -0.202,-19.437 -0.017,-19.309 -0.116,-33.367 10.883,-50.152 9.765,-14.901 24.53,-25.951 42.129,-29.517 24.846,-5.035 41.56,3.727 61.543,17.07 -4.026,3.936 -9.125,7.273 -13.696,10.561 -8.884,6.323 -17.814,12.58 -26.79,18.771 -24.755,17.338 -49.452,34.888 -73.867,52.704 z"
         id="path6" /><path
         fill="#ad5ecf"
         d="m 237.548,351.008 -0.169,-26.66 c -0.133,-18.004 0.53,-31.382 10.115,-47.302 9.662,-16.05 26.485,-28.055 44.689,-32.397 18.527,-4.42 37.124,-1.18 53.426,8.505 5.007,2.975 9.477,6.748 14.456,9.749 l 0.435,0.258 -0.076,0.333 -3.898,1.995 c -19.983,-13.343 -36.697,-22.105 -61.543,-17.07 -17.599,3.566 -32.364,14.616 -42.129,29.517 -10.999,16.785 -10.9,30.843 -10.883,50.152 0.006,6.374 -0.429,13.105 0.202,19.437 -1.473,1.177 -2.965,2.598 -4.625,3.483 z"
         id="path7" /><path
         fill="#159086"
         d="m 122.718,325.163 c 2.853,4.679 7.758,15.036 13.36,16.551 0.898,0.243 1.84,0.297 2.76,0.392 l 0.92,0.103 c 0.192,0.02 0.384,0.036 0.575,0.054 3.836,0.336 7.699,0.262 11.546,0.261 -2.797,3.88 -5.503,8.653 -8.956,11.937 -0.911,1.435 -1.156,2.445 -0.726,4.077 1.322,5.016 5.008,9.571 6.903,14.459 l -6.909,0.092 c -2.501,-0.115 -5.688,-0.517 -8.087,0.248 -5.59,1.783 -8.244,9.247 -10.774,13.998 -3.818,-4.349 -6.562,-9.508 -10.137,-14.058 -5.705,-0.426 -11.597,-0.237 -17.3248,-0.307 1.9597,-5.395 5.3518,-10.581 8.1818,-15.583 -1.503,-4.617 -4.9664,-9.765 -8.0931,-13.452 l 0.3895,-2.304 c 5.2626,-0.149 10.5586,-0.194 15.8136,-0.48 3.59,-5.217 6.735,-10.983 10.558,-15.988 z"
         id="path8" /><path
         fill="#fefefe"
         d="m 121.228,348.456 c 1.024,-0.013 1.995,0.042 2.978,0.366 1.86,0.614 3.606,2.121 4.476,3.876 0.994,2.005 0.973,4.41 0.145,6.469 -1.039,2.582 -2.963,3.913 -5.445,4.939 -0.955,-0.087 -1.955,-0.195 -2.867,-0.509 -1.894,-0.652 -3.738,-2.078 -4.651,-3.879 -0.9,-1.776 -0.887,-3.808 -0.28,-5.677 0.982,-3.026 2.959,-4.147 5.644,-5.585 z"
         id="path9" /><path
         fill="#41287d"
         d="m 431.646,213.043 0.24,-0.018 c 0.833,0.423 1.872,0.726 2.402,1.498 l -1.279,1.343 c -13.78,10.592 -28.297,20.62 -42.633,30.446 -8.969,6.072 -17.757,12.409 -26.747,18.451 l -0.819,0.504 -2.386,-1.773 0.076,-0.333 c 9.562,-5.983 18.386,-13.095 27.743,-19.381 2.058,-0.792 39.739,-27.476 43.403,-30.737 z"
         id="path10" /><path
         fill="url(#gradient_2)"
         d="m 142.923,354.461 c 2.995,6.094 4.753,12.724 7.796,18.84 -0.218,1.219 0.779,2.475 1.479,3.481 3.513,5.052 7.332,9.802 10.044,15.4 0.67,1.383 1.449,1.928 2.69,2.736 -0.59,2.077 -2.029,4.055 -3.129,5.91 -8.954,-8.016 -15.487,-16.425 -19.612,-27.739 l 6.909,-0.092 c -1.895,-4.888 -5.581,-9.443 -6.903,-14.459 -0.43,-1.632 -0.185,-2.642 0.726,-4.077 z"
         id="path11"
         style="fill:url(#gradient_2)" /><path
         fill="#bbb1da"
         d="m 150.719,373.301 c 2.797,2.138 12.333,17.174 15.718,21.223 l -1.505,0.394 c -1.241,-0.808 -2.02,-1.353 -2.69,-2.736 -2.712,-5.598 -6.531,-10.348 -10.044,-15.4 -0.7,-1.006 -1.697,-2.262 -1.479,-3.481 z"
         id="path12" /><path
         fill="url(#gradient_3)"
         d="m 876.615,482.074 c 0.339,-0.031 0.679,-0.059 1.018,-0.094 6.963,-0.72 14.441,-3.263 21.28,-4.887 16.457,-3.906 49.297,-11.049 63.267,0.03 3.723,2.953 5.344,7.433 5.75,12.045 2.89,32.807 -37.525,85.057 -58.125,109.223 -26.681,31.3 -57.002,59.754 -88.21,86.488 -10.589,9.071 -22.987,19.994 -34.54,27.638 l -0.081,-36.913 c 9.405,-6.386 18.337,-13.985 27.41,-20.857 26.464,-20.042 59.017,-43.433 65.998,-78.133 4.85,-24.105 -3.223,-45.289 -16.55,-65.102 6.063,-9.139 9.351,-19.118 12.783,-29.438 z"
         id="path13"
         style="fill:url(#gradient_3)" /><path
         fill="#fefefe"
         d="m 501.949,178.293 c 24.124,-1.737 44.11,0.9 65.003,13.762 4.255,2.64 19.799,11.808 22.142,15.111 0.599,0.854 1.172,1.698 1.695,2.603 -0.884,0.716 -1.327,0.839 -2.394,1.146 l 0.584,1.074 c -2.177,3.571 -6.969,7.138 -10.021,10.197 -12.575,12.602 -26.011,24.616 -37.85,37.908 -8.975,-5.945 -18.301,-11.336 -27.272,-17.318 -20.039,11.816 -40.004,23.899 -59.818,36.088 -11.396,7.068 -22.489,14.599 -33.946,21.57 l -2.606,-0.699 c -3.888,-4.013 -9.734,-5.36 -13.557,-9.786 -1.15,-15.203 -5.122,-30.766 -13.533,-43.637 14.336,-9.826 28.853,-19.854 42.633,-30.446 l 1.279,-1.343 c -0.53,-0.772 -1.569,-1.075 -2.402,-1.498 4.091,-3.59 9.109,-6.678 13.546,-9.864 18.746,-13.463 33.131,-21.612 56.517,-24.868 z"
         id="path14" /><path
         fill="#9c8cca"
         d="m 433.009,215.866 c 7.821,14.219 16.079,29.648 19.266,45.736 1.076,5.431 0.258,12.311 1.743,17.262 -11.396,7.068 -22.489,14.599 -33.946,21.57 l -2.606,-0.699 c -3.888,-4.013 -9.734,-5.36 -13.557,-9.786 -1.15,-15.203 -5.122,-30.766 -13.533,-43.637 14.336,-9.826 28.853,-19.854 42.633,-30.446 z"
         id="path15" /><path
         fill="#e3e2ef"
         d="m 503.145,181.761 c 20.545,-2.629 40.431,0.956 58.426,11.294 -0.085,0.098 -0.167,0.197 -0.254,0.293 -0.144,0.161 -0.294,0.315 -0.438,0.475 -0.213,0.237 -0.416,0.482 -0.634,0.714 -4.859,5.158 -14.339,6.937 -21.15,6.874 -16.855,-0.157 -24.829,-8.355 -35.95,-19.65 z"
         id="path16" /><path
         fill="#8047bf"
         d="m 501.949,178.293 c 24.124,-1.737 44.11,0.9 65.003,13.762 4.255,2.64 19.799,11.808 22.142,15.111 0.599,0.854 1.172,1.698 1.695,2.603 -0.884,0.716 -1.327,0.839 -2.394,1.146 -8.991,-4.984 -17.324,-12.54 -26.824,-17.86 -17.995,-10.338 -37.881,-13.923 -58.426,-11.294 -21.687,2.531 -38.081,12.204 -55.857,24.064 -3.946,2.632 -8.656,6.96 -13,8.698 -0.53,-0.772 -1.569,-1.075 -2.402,-1.498 4.091,-3.59 9.109,-6.678 13.546,-9.864 18.746,-13.463 33.131,-21.612 56.517,-24.868 z"
         id="path17" /><path
         fill="#e3e2ef"
         d="m 363.629,264.763 c 8.99,-6.042 17.778,-12.379 26.747,-18.451 8.411,12.871 12.383,28.434 13.533,43.637 3.823,4.426 9.669,5.773 13.557,9.786 -0.733,0.812 -0.909,1 -1.158,2.053 l -0.384,0.643 c -4.222,-2.407 -8.418,-4.86 -12.587,-7.358 0.034,5.288 -0.008,10.605 -0.831,15.842 -27.769,16.569 -55.357,33.437 -82.761,50.602 -8.53,5.39 -18.962,10.635 -26.85,16.515 0.05,8.603 0.029,17.207 -0.063,25.81 -4.237,3.125 -8.441,6.505 -12.815,9.423 -12.847,-2.405 -27.315,-10.473 -37.993,-17.769 -0.555,-4.989 -0.279,-10.326 -0.3,-15.359 l -0.059,-27.178 c 11.297,-10.248 29.994,-21.867 42.781,-31.157 l 43.68,-31.228 c 10.156,-7.339 20.282,-15.378 30.919,-21.974 0.644,-0.4 1.229,-0.564 1.972,-0.672 0.927,-0.727 1.275,-1.631 1.793,-2.661 z"
         id="path18" /><path
         fill="#e3e2ef"
         d="m 363.629,264.763 c 8.99,-6.042 17.778,-12.379 26.747,-18.451 8.411,12.871 12.383,28.434 13.533,43.637 -13.37,-8.574 -26.745,-16.898 -40.28,-25.186 z"
         id="path19" /><path
         fill="#ad5ecf"
         d="m 362.81,265.267 0.819,-0.504 c 13.535,8.288 26.91,16.612 40.28,25.186 3.823,4.426 9.669,5.773 13.557,9.786 -0.733,0.812 -0.909,1 -1.158,2.053 l -0.384,0.643 c -4.222,-2.407 -8.418,-4.86 -12.587,-7.358 -3.275,-2.932 -7.261,-5.315 -10.911,-7.76 -10.307,-6.902 -20.861,-12.911 -31.409,-19.385 0.927,-0.727 1.275,-1.631 1.793,-2.661 z"
         id="path20" /><path
         fill="url(#gradient_4)"
         d="m 662.601,765.468 c 13.451,6.648 26.507,11.873 41.104,15.541 l -0.619,0.396 c -9.413,6.102 -17.858,14.207 -26.84,20.984 -28.597,21.983 -58.002,42.895 -88.153,62.693 -18.136,11.794 -36.263,23.445 -56.286,31.872 -12.546,5.28 -27.756,10.71 -41.511,7.862 -6.405,-1.326 -12.197,-4.741 -15.755,-10.324 -7.205,-11.303 -5.104,-28.544 -2.63,-40.944 0.892,-4.474 2.405,-9.198 2.791,-13.71 7.394,3.192 15.265,5.787 23.152,7.386 24.582,4.983 49.649,-0.671 70.783,-13.908 9.894,-6.197 19.124,-13.798 28.629,-20.595 21.658,-15.489 43.237,-32.615 65.335,-47.253 z"
         id="path21"
         style="fill:url(#gradient_4)" /><path
         fill="url(#gradient_5)"
         d="m 513.836,242.776 c 8.971,5.982 18.297,11.373 27.272,17.318 1.115,0.803 2.151,1.698 3.51,2.029 18.794,12.658 37.807,24.989 57.029,36.988 l -3.161,2.166 c -5.564,2.962 -10.912,6.603 -16.276,9.925 l -28.297,17.589 c -14.149,9.036 -28.502,17.929 -42.816,26.704 -30.247,-18.51 -60.589,-36.864 -91.025,-55.061 11.457,-6.971 22.55,-14.502 33.946,-21.57 19.814,-12.189 39.779,-24.272 59.818,-36.088 z"
         id="path23"
         style="fill:url(#gradient_5)" /><path
         fill="#e3e2ef"
         d="m 122.656,619.563 c 25.376,33.723 56.919,60.69 90.815,85.496 7.876,5.764 16.091,12.881 25.148,16.554 4.418,22.071 17.61,41.401 36.552,53.559 14.917,9.723 33.64,11.941 50.882,8.181 1.623,-0.357 3.233,-0.775 4.825,-1.252 2.319,2.412 6.706,3.736 9.813,5.05 19.338,8.178 38.657,12.246 59.682,12.487 2.232,0.026 6.647,0.217 8.297,-1.387 0.139,-0.136 0.257,-0.293 0.386,-0.44 7.271,4.507 14.239,9.615 21.251,14.517 -2.098,1.8 -4.712,2.641 -7.308,3.453 -8.979,2.81 -18.789,3.23 -28.142,3.547 -47.723,1.614 -80.756,-15.597 -122.093,-35.806 -9.547,-4.668 -19.436,-8.612 -28.874,-13.495 -13.754,-7.114 -25.754,-16.194 -37.426,-26.298 -37.94,-32.842 -68.565,-76.194 -83.808,-124.166 z"
         id="path24" /><path
         fill="#fefefe"
         d="m 592.073,214.209 c 7.946,5.048 15.348,10.935 22.883,16.569 14.382,10.755 28.683,21.734 43.458,31.944 -8.231,5.779 -16.833,11.086 -25.271,16.559 -10.381,6.732 -20.78,13.642 -31.496,19.83 -19.222,-11.999 -38.235,-24.33 -57.029,-36.988 11.035,-11.409 22.173,-22.718 33.413,-33.925 4.568,-4.583 9.008,-9.978 14.042,-13.989 z"
         id="path25" /><path
         fill="#e3e2ef"
         d="m 687.736,246.883 c 2.704,-15.854 10.093,-28.248 23.326,-37.646 11.744,-8.34 27.13,-11.354 41.247,-8.82 12.935,2.322 25.271,9.586 32.816,20.454 8.035,11.571 11.911,26.796 9.478,40.805 -1.755,10.104 -8.753,19.294 -14.398,27.557 -4.254,-14.274 -20.426,-30.389 -33.147,-37.568 -19.299,-10.89 -38.548,-10.613 -59.322,-4.782 z"
         id="path26" /><path
         fill="#fefefe"
         d="m 172.983,404.892 c 12.303,13.026 26.023,24.778 41.429,34.043 5.732,3.447 11.682,6.349 17.539,9.551 -5.406,3.591 -10.446,7.85 -15.665,11.725 -19.672,14.608 -37.78,29.258 -53.409,48.288 -8.918,-13.595 -14.299,-28.609 -14.288,-44.995 0.014,-21.383 9.201,-43.574 24.394,-58.612 z"
         id="path27" /><path
         fill="#9c8cca"
         d="m 241.665,352.959 0.059,27.178 c 0.021,5.033 -0.255,10.37 0.3,15.359 -0.291,5.843 -1.056,42.238 0.542,45.408 l -5.283,3.983 -2.328,1.79 c -1.05,0.565 -2.028,1.118 -3.004,1.809 -5.857,-3.202 -11.807,-6.104 -17.539,-9.551 -15.406,-9.265 -29.126,-21.017 -41.429,-34.043 5.81,-9.346 32.253,-25.904 42.382,-33.209 l 21.478,-14.637 z"
         id="path28" /><path
         fill="#ad5ecf"
         d="m 241.665,352.959 0.059,27.178 c 0.021,5.033 -0.255,10.37 0.3,15.359 -0.291,5.843 -1.056,42.238 0.542,45.408 l -5.283,3.983 c -0.965,-6.059 -0.435,-12.924 -0.433,-19.076 l 0.041,-33.704 c -7.94,-5.416 -15.387,-13.009 -21.526,-20.424 l 21.478,-14.637 z"
         id="path29" /><path
         fill="#e3e2ef"
         d="m 236.843,357.046 0.048,35.061 c -7.94,-5.416 -15.387,-13.009 -21.526,-20.424 z"
         id="path30" /><path
         fill="#fefefe"
         d="m 330.878,782.101 c 11.354,-4.345 20.594,-11.538 30.967,-17.636 15.999,10.646 31.352,22.445 47.211,33.346 -0.129,0.147 -0.247,0.304 -0.386,0.44 -1.65,1.604 -6.065,1.413 -8.297,1.387 -21.025,-0.241 -40.344,-4.309 -59.682,-12.487 -3.107,-1.314 -7.494,-2.638 -9.813,-5.05 z"
         id="path31" /><path
         fill="#9c8cca"
         d="m 242.024,395.496 c 10.678,7.296 25.146,15.364 37.993,17.769 -11.569,10.247 -25.111,18.362 -37.451,27.639 -1.598,-3.17 -0.833,-39.565 -0.542,-45.408 z"
         id="path32" /><path
         fill="url(#gradient_6)"
         d="m 416.308,301.788 c 0.249,-1.053 0.425,-1.241 1.158,-2.053 l 2.606,0.699 c 30.436,18.197 60.778,36.551 91.025,55.061 14.314,-8.775 28.667,-17.668 42.816,-26.704 l 2.65,1.719 c -15.035,9.784 -30.195,19.374 -45.476,28.767 -8.657,-4.923 -16.987,-10.57 -25.56,-15.667 -23.194,-13.789 -46.379,-27.462 -69.219,-41.822 z"
         id="path33"
         style="fill:url(#gradient_6)" /><path
         fill="#8047bf"
         d="m 598.486,301.277 c 1.319,-0.369 2.115,-0.937 3.377,-0.293 l 0.131,1.126 c -10.021,6.532 -20.144,12.906 -30.367,19.118 -4.915,3.043 -9.936,6.679 -15.064,9.282 l -2.65,-1.719 28.297,-17.589 c 5.364,-3.322 10.712,-6.963 16.276,-9.925 z"
         id="path34" /><path
         fill="#9c8cca"
         d="m 403.337,295.073 c 4.169,2.498 8.365,4.951 12.587,7.358 -4.159,3.233 -8.838,5.895 -13.418,8.484 0.823,-5.237 0.865,-10.554 0.831,-15.842 z"
         id="path35" /><path
         fill="#fefefe"
         d="m 436.58,471.289 c 0.308,-9.955 0.048,-19.922 0.191,-29.881 0.279,-19.497 7.31,-36.356 21.432,-49.964 10.372,-9.994 22.809,-15.694 36.768,-18.825 14.562,-3.267 30.664,-2.341 45.535,-2.472 23.694,-0.202 47.39,-0.09 71.081,0.338 -0.252,6.156 -1.722,11.848 -3.513,17.715 1.654,1.943 2.153,3.291 1.889,5.845 -0.983,9.482 -11.363,24.736 -18.896,30.596 -12.315,9.581 -26.835,8.803 -41.619,9.018 -8.264,0.121 -16.532,0.283 -24.798,0.296 -6.807,0.012 -14.392,-0.64 -20.675,2.504 -4.999,2.501 -8.181,7.145 -11.161,11.677 -0.064,-3.878 0.013,-7.854 -0.364,-11.716 -1.349,10.556 -0.455,23.823 -0.151,34.621 l 62.794,0.439 c 13.914,0.082 27.868,-0.153 41.775,0.147 -0.746,4.195 -1.882,8.263 -3.016,12.365 1.414,0.574 2.13,0.648 2.855,2.153 2.049,4.257 -4.618,16.25 -6.644,19.976 -6.363,11.706 -17.055,22.305 -30.127,26.093 -13.725,3.977 -25.652,3.523 -39.753,3.515 -9.177,-0.033 -18.354,0.086 -27.527,0.357 -0.01,-3.885 0.193,-7.917 -0.227,-11.775 -0.769,6.421 -0.339,13.197 -0.328,19.668 l 0.061,36.161 c 0.012,10.246 0.383,20.597 -1.227,30.751 -4.775,15.618 -13.102,27.053 -27.714,34.778 -7.072,3.739 -14.159,5.493 -22.019,6.583 -1.433,-0.049 -2.648,-0.129 -4.037,-0.551 -1.312,-3.849 -0.351,-25.866 -0.368,-31.197 l -0.262,-84.974 -0.059,-11.786 c -4.282,-0.808 -9.447,-0.281 -13.849,-0.272 l -27.356,0.014 -0.165,-52.038 z"
         id="path36" /><path
         fill="#100c62"
         d="m 608.074,388.2 c 1.654,1.943 2.153,3.291 1.889,5.845 -0.983,9.482 -11.363,24.736 -18.896,30.596 -12.315,9.581 -26.835,8.803 -41.619,9.018 -8.264,0.121 -16.532,0.283 -24.798,0.296 -6.807,0.012 -14.392,-0.64 -20.675,2.504 -4.999,2.501 -8.181,7.145 -11.161,11.677 -0.064,-3.878 0.013,-7.854 -0.364,-11.716 0.027,-2.016 0.296,-3.75 1.097,-5.618 1.902,-4.438 5.487,-7.193 10.07,-8.567 5.16,-1.546 11.321,-1.002 16.664,-0.986 16.427,0.048 45.301,2.264 59.516,-3.565 13.211,-5.417 22.831,-16.53 28.277,-29.484 z"
         id="path37" /><path
         fill="#100c62"
         d="m 593.852,483.992 c 1.414,0.574 2.13,0.648 2.855,2.153 2.049,4.257 -4.618,16.25 -6.644,19.976 -6.363,11.706 -17.055,22.305 -30.127,26.093 -13.725,3.977 -25.652,3.523 -39.753,3.515 -9.177,-0.033 -18.354,0.086 -27.527,0.357 -0.01,-3.885 0.193,-7.917 -0.227,-11.775 2.92,-1.115 8.38,-0.309 11.658,-0.285 l 22.852,-0.007 c 13.197,-0.016 24.846,0.451 37.104,-5.253 15.188,-7.068 24.187,-19.388 29.809,-34.774 z"
         id="path38" /><path
         fill="#fefefe"
         d="m 292.894,408.013 0.1,9.269 c 0.05,17.291 -0.374,34.678 0.068,51.954 0.643,30.313 0.175,60.721 0.115,91.044 -0.023,11.609 -0.469,23.361 -0.05,34.946 -0.236,5.739 -0.012,11.58 0.003,17.329 -6.244,-5.155 -13.998,-9.338 -20.706,-13.971 -10.169,-7.025 -20.088,-14.876 -30.507,-21.47 -1.1,-0.598 -0.68,-13.683 -0.679,-15.669 l 0.017,-78.195 c 0.035,-4.831 1.053,-27.479 -0.706,-30.428 -0.839,-0.439 -0.993,-0.739 -1.954,-0.55 0.823,6.76 0.637,13.506 0.653,20.305 0.032,13.663 -0.453,27.297 -0.496,40.945 -0.025,7.997 0.953,54.527 -0.335,58.803 -0.08,0.264 -0.172,0.524 -0.257,0.786 -0.584,0.216 -0.182,0.106 -1.249,0.08 -26.24,-17.797 -51.484,-37.495 -71.989,-61.777 13.962,-18.338 32.626,-32.671 50.824,-46.521 7.061,-5.375 14.098,-11.069 21.678,-15.699 1.029,-1.45 3.053,-2.473 4.526,-3.45 13.159,-11.927 29.808,-20.086 43.194,-31.782 1.036,-0.869 1.985,-1.838 2.953,-2.782 z"
         id="path39" /><path
         fill="#fefefe"
         d="m 241.95,445.744 c 0.07,4.199 -0.36,8.844 0.477,12.957 0.152,13.108 0.943,114.672 -0.51,118.413 -1.1,-0.598 -0.68,-13.683 -0.679,-15.669 l 0.017,-78.195 c 0.035,-4.831 1.053,-27.479 -0.706,-30.428 -0.839,-0.439 -0.993,-0.739 -1.954,-0.55 0.823,6.76 0.637,13.506 0.653,20.305 0.032,13.663 -0.453,27.297 -0.496,40.945 -0.025,7.997 0.953,54.527 -0.335,58.803 -0.08,0.264 -0.172,0.524 -0.257,0.786 -0.584,0.216 -0.182,0.106 -1.249,0.08 -26.24,-17.797 -51.484,-37.495 -71.989,-61.777 13.962,-18.338 32.626,-32.671 50.824,-46.521 7.061,-5.375 14.098,-11.069 21.678,-15.699 1.029,-1.45 3.053,-2.473 4.526,-3.45 z"
         id="path40" /><path
         fill="#ad5ecf"
         d="m 241.95,445.744 c 0.07,4.199 -0.36,8.844 0.477,12.957 0.152,13.108 0.943,114.672 -0.51,118.413 -1.1,-0.598 -0.68,-13.683 -0.679,-15.669 l 0.017,-78.195 c 0.035,-4.831 1.053,-27.479 -0.706,-30.428 -0.839,-0.439 -0.993,-0.739 -1.954,-0.55 0.823,6.76 0.637,13.506 0.653,20.305 0.032,13.663 -0.453,27.297 -0.496,40.945 -0.025,7.997 0.953,54.527 -0.335,58.803 -0.08,0.264 -0.172,0.524 -0.257,0.786 -1.384,-7.607 -0.34,-17.716 -0.302,-25.627 l 0.216,-66.23 c 0.016,-10.058 1.219,-22.324 -0.65,-32.06 1.029,-1.45 3.053,-2.473 4.526,-3.45 z"
         id="path41" /><path
         fill="#9c8cca"
         d="m 292.894,408.013 0.1,9.269 c 0.05,17.291 -0.374,34.678 0.068,51.954 -12.381,-2.704 -23.601,-4.518 -35.655,-9.014 -4.953,-1.847 -9.536,-4.592 -14.516,-6.447 -0.543,1.56 -0.427,3.29 -0.464,4.926 -0.837,-4.113 -0.407,-8.758 -0.477,-12.957 13.159,-11.927 29.808,-20.086 43.194,-31.782 1.036,-0.869 1.985,-1.838 2.953,-2.782 z"
         id="path42" /><path
         fill="#bbb1da"
         d="m 292.894,408.013 0.1,9.269 c -2.992,-0.623 -5.431,-1.396 -7.85,-3.32 1.036,-0.869 1.985,-1.838 2.953,-2.782 z"
         id="path43" /><path
         fill="#fefefe"
         d="m 242.536,581.996 c 8.299,5.304 16.044,11.633 24.166,17.23 8.693,5.989 17.861,11.318 26.376,17.557 -0.051,5.494 -0.041,10.989 0.03,16.483 0.028,1.458 -0.301,3.083 0.795,4.221 3.122,3.242 22.637,14.272 28.211,17.751 l 59.599,37.545 c 13.83,8.588 28.561,16.735 41.58,26.5 -9.733,6.018 -19.033,12.777 -28.513,19.184 -10.989,7.427 -22.155,14.58 -33.115,22.054 -14.894,-9.301 -28.998,-19.784 -43.507,-29.662 -25.584,-17.419 -51.731,-34.786 -75.67,-54.427 z"
         id="path44" /><path
         fill="url(#gradient_7)"
         d="m 731.202,618.689 c 12.298,-7.591 24.034,-16.217 35.793,-24.614 5.435,-3.882 10.833,-8.244 16.606,-11.575 l 0.006,58.228 c 0,11.193 -0.284,22.471 0.212,33.654 -29.099,21.339 -58.403,42.399 -87.908,63.174 -11.193,7.966 -22.063,16.322 -33.432,24.053 -13.756,-7.745 -26.572,-16.607 -39.688,-25.363 -2.457,-2.905 -16.727,-12.213 -20.774,-15.442 9.961,-6.727 20.338,-12.929 30.464,-19.413 21.467,-13.993 43.016,-27.86 64.645,-41.599 11.303,-7.278 23.134,-14.277 34.037,-22.109 -0.065,-6.327 -0.236,-12.671 0.039,-18.994 z"
         id="path45"
         style="fill:url(#gradient_7)" /><path
         fill="#bbb1da"
         d="m 599,722.576 c 0.85,0.182 1.317,0.33 2.108,0.741 7.422,6.501 15.994,11.984 24.09,17.626 11.134,7.759 22.19,15.708 33.907,22.575 -21.814,16.43 -43.965,32.273 -66.149,48.187 -13.022,9.341 -25.546,20.626 -40.435,26.889 -15.898,6.548 -33.242,8.784 -50.281,6.481 -9.037,-1.266 -18.968,-3.981 -27.038,-8.321 8.981,-21.975 13.397,-46.855 27.069,-66.703 3.832,1.861 7.565,4.772 11.288,6.963 13.759,-6.435 31.772,-19.6 44.934,-27.995 12.936,-8.25 29.013,-16.686 40.507,-26.443 z"
         id="path46" /><path
         fill="#fefefe"
         d="m 661.463,264.884 c 11.64,9.21 24.239,17.224 35.503,26.903 3.964,2.209 8,4.498 11.547,7.344 14.384,10.716 28.951,21.185 43.694,31.402 7.388,5.038 14.742,10.124 22.063,15.259 2.645,1.873 5.889,3.756 8.252,5.95 0.661,0.614 0.837,0.851 1.044,1.703 -0.094,10.203 0.399,20.591 -0.124,30.768 0.353,19.11 -0.146,38.231 0.055,57.342 -11.683,-8.721 -23.608,-16.946 -35.685,-25.109 -5.296,-3.58 -10.609,-7.776 -16.239,-10.766 -0.306,-7.841 -0.445,-15.688 -0.416,-23.535 -6.885,-6.471 -21.306,-14.005 -29.768,-19.472 l -64.384,-41.01 c -10.514,-6.734 -21.232,-13.32 -31.453,-20.49 18.637,-12.187 37.595,-23.578 55.911,-36.289 z"
         id="path47" /><path
         fill="#fefefe"
         d="m 708.513,299.131 c 14.384,10.716 28.951,21.185 43.694,31.402 7.388,5.038 14.742,10.124 22.063,15.259 2.645,1.873 5.889,3.756 8.252,5.95 0.661,0.614 0.837,0.851 1.044,1.703 l -0.66,2.626 -0.571,0.193 c -10.682,-7.354 -21.87,-13.968 -32.679,-21.099 -7.273,-4.799 -37.563,-26.57 -40.801,-31.852 -0.974,-1.589 -0.792,-2.425 -0.342,-4.182 z"
         id="path48" /><path
         fill="#e3e2ef"
         d="m 696.966,291.787 c 3.964,2.209 8,4.498 11.547,7.344 -0.45,1.757 -0.632,2.593 0.342,4.182 3.238,5.282 33.528,27.053 40.801,31.852 10.809,7.131 21.997,13.745 32.679,21.099 l 0.571,-0.193 0.66,-2.626 c -0.094,10.203 0.399,20.591 -0.124,30.768 -0.902,-8.405 -0.339,-17.359 -0.516,-25.844 -10.75,-4.819 -20.689,-11.871 -30.486,-18.364 -17.111,-11.34 -33.685,-21.527 -47.275,-37.266 -2.937,-3.402 -6.041,-6.998 -8.199,-10.952 z"
         id="path49" /><path
         fill="#41287d"
         d="m 425.274,719.469 c 10.188,-8.093 21.584,-15.166 32.294,-22.593 l 54.75,-38.511 c 18.869,13.477 37.848,26.8 56.936,39.966 10.854,7.557 21.416,15.644 32.763,22.473 4.047,3.229 18.317,12.537 20.774,15.442 l -0.243,0.221 c -3.735,-0.415 -15.569,-11.751 -20.306,-14.052 l -1.134,0.902 c -0.791,-0.411 -1.258,-0.559 -2.108,-0.741 -11.494,9.757 -27.571,18.193 -40.507,26.443 -13.162,8.395 -31.175,21.56 -44.934,27.995 -3.723,-2.191 -7.456,-5.102 -11.288,-6.963 -12.239,-8.647 -25.441,-16.284 -38.092,-24.35 -12.309,-7.848 -24.513,-16.463 -37.269,-23.531 l -0.856,-0.917 0.111,-0.362 z"
         id="path50" /><path
         fill="#ad5ecf"
         d="m 425.274,719.469 c 10.188,-8.093 21.584,-15.166 32.294,-22.593 l 54.75,-38.511 c 18.869,13.477 37.848,26.8 56.936,39.966 10.854,7.557 21.416,15.644 32.763,22.473 4.047,3.229 18.317,12.537 20.774,15.442 l -0.243,0.221 c -3.735,-0.415 -15.569,-11.751 -20.306,-14.052 l -1.134,0.902 c -0.791,-0.411 -1.258,-0.559 -2.108,-0.741 -9.665,-4.489 -26.072,-17.561 -35.43,-24.229 -16.809,-11.975 -33.937,-23.472 -50.646,-35.594 -6.543,3.718 -12.668,8.738 -18.916,12.988 -14.318,9.689 -28.549,19.505 -42.691,29.447 -8.101,5.672 -16.026,11.738 -24.407,16.982 l -0.856,-0.917 0.111,-0.362 z"
         id="path51" /><path
         fill="#fefefe"
         d="m 162.402,514.772 c 3.828,2.359 8.615,8.922 11.838,12.341 4.581,4.859 9.437,9.671 14.458,14.077 15.493,13.598 32.796,25.518 49.33,37.825 -0.02,31.41 -0.106,62.897 0.385,94.298 -2.655,-1.809 -5.18,-3.85 -7.733,-5.802 -8.13,-6.034 -16.055,-12.414 -24.051,-18.629 -25.38,-19.726 -51.465,-41.264 -58.425,-74.403 -4.627,-22.028 2.309,-41.414 14.198,-59.707 z"
         id="path52" /><path
         fill="#fefefe"
         d="m 364.988,762.453 c 8.694,-6.197 17.704,-11.962 26.436,-18.114 7.941,-5.594 26.745,-19.772 34.63,-23.086 l 0.856,0.917 c 12.756,7.068 24.96,15.683 37.269,23.531 12.651,8.066 25.853,15.703 38.092,24.35 -13.672,19.848 -18.088,44.728 -27.069,66.703 -15.671,-7.231 -30.265,-17.456 -44.198,-27.554 -7.037,-4.184 -13.71,-9.3 -20.356,-14.083 -15.657,-10.007 -31.138,-21.065 -45.66,-32.664 z"
         id="path53" /><path
         fill="#e3e2ef"
         d="m 410.648,795.117 c 5.851,-1.573 12.815,-0.649 18.867,-1.231 14.604,-1.443 29.006,-4.491 42.943,-9.088 -8.111,7.181 -17.503,13.772 -27.406,18.306 -3.807,1.743 -11.597,2.817 -14.048,6.096 -7.037,-4.184 -13.71,-9.3 -20.356,-14.083 z"
         id="path54" /><path
         fill="url(#gradient_8)"
         d="m 861.563,515.413 c 0.495,0.301 0.873,0.766 1.232,1.218 2.619,3.303 4.67,7.453 6.516,11.226 6.94,14.192 10.235,28.837 8.206,44.624 -5.181,40.315 -51.031,68.656 -80.738,91.759 -3.248,2.101 -6.323,4.921 -9.379,7.321 l -0.309,-91.279 c 8.263,-5.632 16.205,-11.827 24.197,-17.838 12.305,-9.254 24.933,-18.611 35.715,-29.657 5.296,-5.425 9.889,-11.416 14.56,-17.374 z"
         id="path55"
         style="fill:url(#gradient_8)" /><path
         fill="#fefefe"
         d="m 787.171,360.233 0.596,-4.138 0.428,1.079 0.593,-0.684 c 3.05,2.25 6.139,4.462 9.108,6.818 5.104,3.395 10.224,7.674 14.58,11.978 7.581,5.463 14.81,11.371 22.095,17.219 18.036,14.476 37.024,30.002 40.969,54.208 2.003,12.292 0.671,24.27 -2.695,36.211 -2.458,9.246 -6.021,17.551 -11.044,25.707 -4.957,-5.655 -9.857,-11.454 -15.186,-16.765 -17.872,-17.93 -38.688,-33.361 -59.501,-47.688 -0.343,-9.504 0.185,-19.091 0.246,-28.605 l 0.122,-53.849 z"
         id="path56" /><path
         fill="#9c8cca"
         d="m 846.615,491.866 c 8.761,-1.94 17.897,-5.591 26.23,-8.942 -2.458,9.246 -6.021,17.551 -11.044,25.707 -4.957,-5.655 -9.857,-11.454 -15.186,-16.765 z"
         id="path57" /><path
         fill="#e3e2ef"
         d="m 787.171,360.233 0.596,-4.138 0.428,1.079 0.593,-0.684 c 3.05,2.25 6.139,4.462 9.108,6.818 5.104,3.395 10.224,7.674 14.58,11.978 -4.06,-0.439 -21.539,-10.486 -24.994,-13.562 z"
         id="path58" /><path
         fill="#fefefe"
         d="m 787.171,360.233 0.596,-4.138 0.428,1.079 0.593,-0.684 c 3.05,2.25 6.139,4.462 9.108,6.818 -2.51,1.062 -7.783,-2.438 -10.725,-3.075 z"
         id="path59" /><path
         fill="#e3e2ef"
         d="m 686.915,251.196 c 17.903,-6.364 36.657,-6.283 53.998,1.949 16.914,8.029 29.249,21.623 36.306,38.913 8.067,18.08 6.559,36.372 6.216,55.618 -14.47,-9.869 -28.741,-20.083 -43.118,-30.094 -12.172,-8.476 -24.646,-16.754 -36.37,-25.836 -2.053,-0.855 -4.288,-3.015 -6.016,-4.455 -10.804,-8.187 -21.874,-15.997 -32.708,-24.143 6.712,-5.126 13.991,-8.625 21.692,-11.952 z"
         id="path60" /><path
         fill="#fefefe"
         d="m 703.947,291.746 1.257,-0.851 c 5.125,1.366 9.508,5.972 14.142,8.579 14.423,8.112 34.749,7.011 48.877,-1.195 3.155,-1.833 6.071,-4.049 8.996,-6.221 8.067,18.08 6.559,36.372 6.216,55.618 -14.47,-9.869 -28.741,-20.083 -43.118,-30.094 -12.172,-8.476 -24.646,-16.754 -36.37,-25.836 z"
         id="path61" /><path
         fill="#fefefe"
         d="m 665.223,263.148 c 6.712,-5.126 13.991,-8.625 21.692,-11.952 0.576,8.679 1.201,16.487 4.117,24.771 1.284,3.646 7.045,7.622 7.222,10.754 l -0.323,0.57 c -10.804,-8.187 -21.874,-15.997 -32.708,-24.143 z"
         id="path62" /><path
         fill="url(#gradient_9)"
         d="m 665.474,763.377 c 7.12,-5.879 15.247,-11.075 22.757,-16.487 17.087,-12.346 34.276,-24.551 51.566,-36.611 14.703,-10.306 28.633,-21.97 43.703,-31.707 l -0.054,37.447 c -1.026,19.18 -11.226,35.145 -25.361,47.822 -12.605,11.306 -28.873,16.786 -45.756,15.829 -1.852,-0.105 -3.616,-0.193 -5.387,-0.782 -2.678,-2.137 -11.019,-3.156 -14.698,-4.285 -9.193,-2.822 -18.27,-6.74 -26.77,-11.226 z"
         id="path63"
         style="fill:url(#gradient_9)" /><path
         fill="#fefefe"
         d="m 706.942,778.888 c 4.413,-4.527 73.193,-61.442 76.504,-62.869 -1.026,19.18 -11.226,35.145 -25.361,47.822 -12.605,11.306 -28.873,16.786 -45.756,15.829 -1.852,-0.105 -3.616,-0.193 -5.387,-0.782 z"
         id="path64" /><path
         fill="#fefefe"
         d="m 731.5,409.092 c 8.925,6.577 18.291,12.503 27.317,18.934 8.279,5.898 16.229,12.348 24.678,17.988 l 0.044,72.056 c -4.975,1.704 -9.788,4.385 -14.521,6.678 -12.782,6.192 -25.038,12.944 -37.597,19.529 -0.505,-45.06 -0.478,-90.125 0.079,-135.185 z"
         id="path65" /><path
         fill="#fefefe"
         d="m 242.457,681.152 c 32.457,24.355 65.996,46.971 99.273,70.162 5.414,3.773 11.086,7.212 16.452,11.04 -10.25,6.526 -20.322,13.393 -32.13,16.77 -13.903,3.116 -28.296,2.409 -41.362,-3.575 -19.983,-9.152 -31.56,-25.065 -39.084,-45.153 -4.906,-15.5 -3.196,-33.146 -3.149,-49.244 z"
         id="path66" /><path
         fill="#e3e2ef"
         d="m 245.606,730.396 c 6.448,3.042 12.651,7.507 18.666,11.342 16.744,10.676 32.784,22.236 50.589,31.175 3.741,1.878 8.012,3.438 11.191,6.211 -13.903,3.116 -28.296,2.409 -41.362,-3.575 -19.983,-9.152 -31.56,-25.065 -39.084,-45.153 z"
         id="path67" /><path
         fill="#9c8cca"
         d="m 787.455,448.605 c 6.72,5.596 14.129,10.545 21.143,15.779 11.858,8.849 23.591,18.238 34.279,28.484 6.033,5.673 11.868,12.147 16.747,18.844 -14.407,20.015 -32.009,34.316 -51.552,48.961 -6.856,5.138 -13.654,10.451 -20.652,15.39 l 0.02,-59.725 z"
         id="path68" /><path
         fill="#fefefe"
         d="m 787.455,448.605 c 6.72,5.596 14.129,10.545 21.143,15.779 11.858,8.849 23.591,18.238 34.279,28.484 -5.565,2.907 -11.746,4.904 -17.577,7.263 -12.671,5.125 -25.563,10.251 -37.86,16.207 z"
         id="path69" /><path
         fill="#9c8cca"
         d="m 783.539,518.07 c 0.371,20.142 -0.218,40.298 0.077,60.442 -5.417,3.862 -50.556,36.047 -52.212,36.414 l 0.017,-70.649 c 12.559,-6.585 24.815,-13.337 37.597,-19.529 4.733,-2.293 9.546,-4.974 14.521,-6.678 z"
         id="path70" /><path
         fill="#fefefe"
         d="m 630.146,517.45 c 5.122,4.602 9.79,10.003 14.6,14.947 6.833,7.023 14.154,14.008 20.347,21.593 -9.332,11.431 -24.352,26.183 -35.427,35.947 -12.347,-11.71 -24.138,-23.727 -35.661,-36.244 12.164,-11.875 23.498,-24.934 36.141,-36.243 z"
         id="path71" /><path
         fill="#100c62"
         d="m 395.162,523.917 c 7.543,0.299 15.163,0.13 22.715,0.16 6.09,0.025 12.561,0.453 18.599,-0.333 l 0.059,11.786 c -13.825,0.267 -27.652,0.417 -41.479,0.452 z"
         id="path72" /><path
         fill="#100c62"
         d="m 490.935,610.891 0.684,0.274 c -1.86,14.25 -14.385,26.93 -25.201,35.227 -3.165,2.429 -7.828,3.925 -11.478,5.55 -0.123,-0.118 -0.243,-0.237 -0.368,-0.352 -0.542,-0.5 -0.312,-0.322 -0.977,-0.678 -0.14,0.076 -0.278,0.155 -0.419,0.228 -4.504,2.364 -11.022,1.692 -16.046,1.982 -0.092,3.051 -1.09,10.368 0.8,12.594 5.686,1.741 21.846,-3.881 27.119,-6.691 12.379,-6.598 21.028,-18.576 24.962,-31.904 0.77,-2.61 1.543,-5.33 1.865,-8.038 0.221,-1.859 -0.092,-5.004 0.476,-6.659 0.132,-0.383 0.441,-0.68 0.661,-1.02 0.176,0.161 0.183,1.211 0.182,1.312 -0.021,15.131 -8.142,31.704 -19.584,41.387 -10.162,8.599 -23.939,12.392 -37.101,12.405 0.002,-3.903 -1.22,-10.076 0.825,-13.426 1.167,-0.766 2.516,-0.721 3.867,-0.83 7.86,-1.09 14.947,-2.844 22.019,-6.583 14.612,-7.725 22.939,-19.16 27.714,-34.778 z"
         id="path73" /><path
         fill="url(#gradient_10)"
         d="m 824.354,850.822 c -10.236,1.655 -21.122,-0.958 -29.933,-6.209 -10.937,-6.52 -19.32,-16.52 -22.422,-28.993 -5.559,-22.352 5.326,-44.103 26.485,-52.902 2.679,-1.114 12.827,-3.374 14.318,-4.751 0.469,-0.433 0.189,-2.064 0.152,-2.622 -0.767,-11.616 0.833,-24.405 7.034,-34.489 8.412,-13.68 22.411,-21.795 37.776,-25.419 17.933,-4.23 36.069,-1.61 51.702,8.279 13.462,8.517 25.276,26.506 28.626,42.009 2.039,9.439 3.236,24.929 -2.241,33.486 4.569,6.771 9.218,15.015 10.459,23.208 4.573,14.619 1.056,35.342 -5.984,48.697 -8.288,15.473 -22.349,27.049 -39.126,32.209 -5.479,1.643 -12.704,3.183 -18.42,2.521 -5.475,0.32 -11.339,-0.652 -16.614,-2.064 -18.407,-4.929 -32.399,-16.677 -41.812,-32.96 z"
         id="path74"
         style="fill:url(#gradient_10)" /><path
         fill="#e3e2ef"
         d="m 824.354,850.822 c -10.236,1.655 -21.122,-0.958 -29.933,-6.209 -10.937,-6.52 -19.32,-16.52 -22.422,-28.993 -5.559,-22.352 5.326,-44.103 26.485,-52.902 2.679,-1.114 12.827,-3.374 14.318,-4.751 0.469,-0.433 0.189,-2.064 0.152,-2.622 -0.767,-11.616 0.833,-24.405 7.034,-34.489 8.412,-13.68 22.411,-21.795 37.776,-25.419 17.933,-4.23 36.069,-1.61 51.702,8.279 13.462,8.517 25.276,26.506 28.626,42.009 2.039,9.439 3.236,24.929 -2.241,33.486 -11.526,-14.88 -26.592,-24.839 -45.498,-27.207 -18.01,-2.255 -36.185,2.291 -50.473,13.621 -13.274,10.526 -22.014,27.689 -23.934,44.42 -1.617,14.086 1.932,28.295 8.408,40.777 z"
         id="path75" /><path
         fill="#41287d"
         d="m 913.552,848.076 c 0.02,-0.039 0.05,-0.075 0.06,-0.119 0.186,-0.871 0.217,-1.429 0.661,-2.225 2.458,-4.403 6.79,-8.611 9.843,-12.716 5.673,-7.766 11.093,-15.714 16.251,-23.832 1.259,-1.963 3.379,-4.403 4.065,-6.602 0.062,-0.199 0.114,-0.4 0.171,-0.6 l 0.77,-0.313 0.043,0.275 0.894,0.475 c 4.573,14.619 1.056,35.342 -5.984,48.697 -8.288,15.473 -22.349,27.049 -39.126,32.209 -5.479,1.643 -12.704,3.183 -18.42,2.521 -2.386,-1.602 -6.793,-1.069 -9.737,-1.822 l -0.335,-0.769 c 0.172,-1.767 0.532,-2.67 1.57,-4.109 7.06,-9.784 17.806,-16.233 26.418,-24.493 1.561,-1.496 4.905,-6.784 6.714,-7.085 0.707,0.75 1.064,1.107 2.076,1.438 0.246,0.08 0.5,0.133 0.75,0.2 z"
         id="path76" /><path
         fill="#fefefe"
         d="m 878.211,817.493 c -7.228,-9.053 -19.556,-18.043 -25.987,-26.68 -0.997,-1.338 -1.654,-2.467 -1.788,-4.162 0.47,-0.625 0.323,-0.763 0.998,-0.782 1.454,-0.041 3.169,1.073 4.29,1.92 4.157,3.145 7.761,7.652 11.415,11.394 4.734,4.848 9.677,9.507 14.569,14.195 7.455,-6.847 13.839,-15.579 21.693,-21.832 1.493,-1.188 3.056,-2.382 5.052,-2.167 0.882,0.897 0.863,0.888 0.967,2.144 -2.309,5.089 -19.847,20.51 -24.94,25.29 6.376,6.317 23.837,21.916 28.124,28.08 0.723,1.04 0.846,1.946 0.948,3.183 l -3.316,1.13 c -1.977,-2.444 -4.776,-4.743 -7.012,-7.027 -7.067,-7.288 -14.297,-14.418 -21.683,-21.384 -3.601,3.473 -27.12,27.697 -29.24,28.396 -1.209,0.399 -1.925,0.274 -3.062,-0.209 l -0.388,-1.034 c 1.584,-6.207 23.599,-25.226 29.36,-30.455 z"
         id="path77" /><path
         fill="url(#gradient_11)"
         d="m 142.185,739.819 c 2.284,-2.025 4.537,-4.135 7.777,-4.259 2.86,-0.109 4.946,1.577 6.999,3.336 4.663,3.699 10.193,6.525 15.325,9.531 l 24.417,14.295 c 4.895,2.88 12.192,8.208 16.722,10.473 2.584,-0.055 5.056,0.256 7.03,2.101 1.685,1.576 2.363,3.966 2.38,6.213 0.01,1.238 -0.21,2.477 -0.418,3.694 0.07,19.621 -0.175,39.276 0.123,58.893 0.731,2.835 0.762,5.65 -0.788,8.243 -1.396,2.336 -3.834,3.839 -6.475,4.349 -0.221,0.043 -0.447,0.061 -0.67,0.092 -4.936,0.526 -10.967,5.707 -15.217,8.32 -8.264,5.08 -40.899,25.612 -48.017,27.366 -2.482,0.612 -5.401,-0.66 -7.606,-1.708 -6.645,-3.158 -12.748,-8.27 -19.027,-12.15 -13.665,-8.443 -27.5584,-16.484 -40.9906,-25.313 -1.6186,-0.709 -3.3102,-1.634 -4.5084,-2.962 -1.8568,-2.057 -1.7964,-4.386 -1.762,-7.01 -1.0298,-9.134 -0.4161,-18.871 -0.418,-28.07 -0.0023,-11.138 -0.4832,-22.489 0.2366,-33.599 0.133,-1.678 0.2174,-3.368 1.017,-4.885 1.6116,-3.056 4.4726,-3.939 7.5946,-4.835 9.1683,-4.621 17.9448,-9.993 26.8238,-15.141 9.854,-5.593 19.672,-11.251 29.452,-16.974 z"
         id="path78"
         style="fill:url(#gradient_11)" /><path
         fill="#100c62"
         d="m 213.425,773.195 c 2.584,-0.055 5.056,0.256 7.03,2.101 1.685,1.576 2.363,3.966 2.38,6.213 0.01,1.238 -0.21,2.477 -0.418,3.694 -1.113,1.343 -2.568,3.061 -4.055,3.954 -1.903,1.142 -4.402,1.438 -6.524,0.811 -2.231,-0.666 -4.085,-2.229 -5.12,-4.314 -1.042,-2.126 -1.096,-4.482 -0.197,-6.666 1.33,-3.23 3.848,-4.485 6.904,-5.793 z"
         id="path79" /><path
         fill="#100c62"
         d="m 214.607,856.78 c -1.215,-0.104 -2.297,-0.278 -3.398,-0.82 -2.125,-1.047 -3.854,-2.58 -4.546,-4.909 -0.634,-2.163 -0.337,-4.492 0.821,-6.425 1.169,-1.978 3.148,-3.342 5.413,-3.732 3.794,-0.668 6.688,1.054 9.643,3.202 0.731,2.835 0.762,5.65 -0.788,8.243 -1.396,2.336 -3.834,3.839 -6.475,4.349 -0.221,0.043 -0.447,0.061 -0.67,0.092 z"
         id="path80" /><path
         fill="#100c62"
         d="m 142.185,739.819 c 2.284,-2.025 4.537,-4.135 7.777,-4.259 2.86,-0.109 4.946,1.577 6.999,3.336 0.183,3.255 0.478,6.275 -1.919,8.871 -1.388,1.504 -3.233,2.315 -5.282,2.311 -2.282,-0.015 -4.453,-0.985 -5.985,-2.674 -1.247,-1.376 -2.177,-3.362 -2.015,-5.252 0.066,-0.785 0.248,-1.567 0.425,-2.333 z"
         id="path81" /><path
         fill="#100c62"
         d="m 77.479,843.323 c 2.1957,-2.348 4.1651,-4.626 7.6566,-4.631 1.9981,-0.002 3.7487,0.769 5.1394,2.196 1.4482,1.486 2.2792,3.617 2.1658,5.696 -0.1174,1.964 -1.0783,3.781 -2.6355,4.983 -1.3792,1.073 -2.6317,1.374 -4.3251,1.552 l -1.0022,0.111 c -0.2426,0.024 -0.4857,0.043 -0.7286,0.065 -1.6186,-0.709 -3.3102,-1.634 -4.5084,-2.962 -1.8568,-2.057 -1.7964,-4.386 -1.762,-7.01 z"
         id="path82" /><path
         fill="#100c62"
         d="m 77.2976,781.654 c 0.133,-1.678 0.2174,-3.368 1.017,-4.885 1.6116,-3.056 4.4726,-3.939 7.5946,-4.835 2.5653,0.839 4.6057,1.785 5.8568,4.323 0.9311,1.888 0.889,4.134 0.0993,6.06 -0.734,1.791 -2.1781,3.306 -4.001,3.998 -2.0077,0.761 -4.2543,0.424 -6.1126,-0.581 -1.8366,-0.992 -3.1365,-2.501 -4.4541,-4.08 z"
         id="path83" /><path
         fill="#fefefe"
         d="m 148.901,763.901 c 4.064,0.956 39.111,22.651 44.788,26.375 0.249,16.445 0.318,32.893 0.207,49.339 -14.628,9.279 -30.075,17.331 -44.931,26.254 -14.939,-8.678 -29.889,-17.113 -44.997,-25.493 l -0.241,-50.207 c 14.709,-9.336 30.585,-16.788 45.174,-26.268 z"
         id="path84" /><path
         fill="#100c62"
         d="m 148.575,791.482 c 0.309,-0.009 0.619,-0.05 0.927,-0.027 2.509,0.181 18.736,9.572 20.862,11.879 l 0.096,23.829 c -5.423,5.059 -13.728,8.499 -20.246,11.968 l -1.125,0.087 c -5.369,-2.742 -14.368,-6.582 -18.401,-10.722 -1.178,-1.21 -1.888,-2.708 -2.227,-4.354 -0.726,-3.525 0.055,-16.37 0.008,-20.997 5.938,-4.621 13.578,-7.856 20.106,-11.663 z"
         id="path85" /><path
         fill="#fefefe"
         d="m 145.997,796.908 c 0.794,0.069 1.433,0.171 2.172,0.484 2.003,0.849 3.582,2.79 4.261,4.825 1.051,3.149 0.423,6.915 -1.203,9.756 -0.937,1.638 -2.54,3.411 -4.474,3.815 -2.131,0.445 -3.3,-0.227 -5.027,-1.31 -2.545,-1.449 -5.867,-2.996 -7.986,-4.991 -1.334,-1.256 -1.821,-2.199 -1.846,-4.026 2.066,-3.97 10.133,-6.67 14.103,-8.553 z"
         id="path86" /><path
         fill="#100c62"
         d="m 147.973,873.558 c 1.288,-0.061 2.663,-0.18 3.941,0.019 2.077,0.323 4.154,1.692 5.303,3.443 1.185,1.802 1.535,4.028 0.96,6.107 -0.879,3.266 -3.03,5.122 -5.894,6.673 -1.143,-0.032 -2.326,-0.049 -3.439,-0.333 -2.684,-0.683 -5.288,-2.563 -6.543,-5.062 -0.875,-1.744 -1.042,-3.755 -0.338,-5.588 1.07,-2.788 3.424,-4.109 6.01,-5.259 z"
         id="path87" /><path
         fill="#e3e2ef"
         d="m 501.949,178.293 -0.196,-0.501 c -1.509,-3.785 -3.69,-7.343 -4.986,-11.194 -3.127,-9.285 -1.965,-21.63 1.898,-30.558 4.751,-11.046 13.813,-19.669 25.081,-23.866 11.232,-4.305 24.518,-4.996 35.626,0.064 12.013,5.472 20.1,14.979 24.645,27.241 4.216,11.371 3.477,23.811 -1.641,34.777 -3.322,7.118 -8.766,13.573 -15.424,17.799 -20.893,-12.862 -40.879,-15.499 -65.003,-13.762 z"
         id="path88" /><path
         fill="url(#gradient_12)"
         d="m 651.694,149.146 c -7.598,-8.929 -9.774,-21.268 -5.688,-32.257 4.087,-10.989 13.796,-18.9085 25.382,-20.7032 11.585,-1.7948 23.236,2.8162 30.455,12.0532 10.288,13.163 8.867,31.993 -3.279,43.462 -12.147,11.47 -31.027,11.811 -43.579,0.787 -0.181,-0.158 -0.359,-0.319 -0.536,-0.482 -0.976,-0.896 -1.896,-1.851 -2.755,-2.86 z"
         id="path89"
         style="fill:url(#gradient_12)" /><path
         fill="#fefefe"
         d="m 670.359,137.892 c -1.467,-1.15 -2.964,-2.365 -4.066,-3.882 -1.982,-2.729 -2.893,-6.207 -2.187,-9.534 0.804,-3.785 3.381,-6.845 6.672,-8.775 2.877,-1.687 6.349,-2.372 9.579,-1.357 4.195,1.319 6.419,4.405 8.42,8.077 0.944,4.238 0.976,7.864 -1.538,11.613 -1.94,2.893 -5.017,4.74 -8.445,5.258 -2.99,0.451 -5.715,-0.145 -8.435,-1.4 z"
         id="path90" /><path
         fill="#e3e2ef"
         d="m 90.1555,512.757 c 12.9775,-0.241 23.7465,9.977 24.1865,22.949 0.44,12.973 -9.612,23.897 -22.5763,24.536 -8.5645,0.421 -16.6919,-3.805 -21.2657,-11.058 -4.5737,-7.253 -4.8842,-16.408 -0.8123,-23.955 4.0719,-7.546 11.8943,-12.313 20.4678,-12.472 z"
         id="path91" /><path
         fill="#41287d"
         d="m 873.989,296.931 20.392,0.407 c -3.35,5.232 -6.833,10.419 -9.92,15.81 2.84,5.541 5.218,11.381 8.653,16.587 -5.967,0.109 -12.311,0.946 -18.218,0.65 -3.754,-0.834 -8.241,-0.362 -12.09,-0.341 -2.558,-0.008 -5.455,-0.315 -7.951,0.048 -5.168,1.255 -12.197,0.537 -17.631,0.599 1.466,-3.49 7.978,-14.566 7.481,-17.583 -3.89,-5.139 -6.574,-11.037 -10.63,-16.134 6.38,-0.028 13.836,-0.757 20.075,0.359 2.666,1.289 6.392,0.758 9.311,0.6 3.502,-0.444 7.009,-0.725 10.528,-1.002 z"
         id="path92" /><path
         fill="#e96f65"
         d="m 873.989,296.931 20.392,0.407 c -3.35,5.232 -6.833,10.419 -9.92,15.81 2.84,5.541 5.218,11.381 8.653,16.587 -5.967,0.109 -12.311,0.946 -18.218,0.65 -3.754,-0.834 -8.241,-0.362 -12.09,-0.341 1.786,-0.432 3.552,-0.923 5.321,-1.417 l 0.321,-0.867 0.273,0.055 c -1.468,0.021 -2.835,0.266 -4.273,0.529 l -0.42,-0.727 c 4.456,-0.987 8.565,-2.499 11.381,-6.359 1.808,-2.477 2.247,-5.407 1.64,-8.381 -0.864,-4.235 -3.727,-7.903 -7.285,-10.24 l -2.368,-1.541 -0.062,-0.369 c -1.047,-1.227 -2.58,-1.748 -4.021,-2.432 l 2.873,0.343 c -0.683,-0.745 -1.738,-0.597 -2.725,-0.705 3.502,-0.444 7.009,-0.725 10.528,-1.002 z"
         id="path93" /><path
         fill="#f6867d"
         d="m 834.075,296.974 c 6.38,-0.028 13.836,-0.757 20.075,0.359 2.666,1.289 6.392,0.758 9.311,0.6 0.987,0.108 2.042,-0.04 2.725,0.705 l -2.873,-0.343 c 1.441,0.684 2.974,1.205 4.021,2.432 l 0.062,0.369 c -1.962,-0.388 -3.686,-0.623 -5.688,-0.511 -4.165,1.621 -7.737,3.688 -9.706,7.938 -1.551,3.35 -1.618,7.439 -0.214,10.85 1.267,3.08 3.997,5.939 7.154,7.088 1.625,0.591 3.388,0.864 5.086,1.156 l 0.42,0.727 c 1.438,-0.263 2.805,-0.508 4.273,-0.529 l -0.273,-0.055 -0.321,0.867 c -1.769,0.494 -3.535,0.985 -5.321,1.417 -2.558,-0.008 -5.455,-0.315 -7.951,0.048 -5.168,1.255 -12.197,0.537 -17.631,0.599 1.466,-3.49 7.978,-14.566 7.481,-17.583 -3.89,-5.139 -6.574,-11.037 -10.63,-16.134 z"
         id="path94" /><path
         fill="#f57771"
         d="m 834.075,296.974 c 6.38,-0.028 13.836,-0.757 20.075,0.359 2.666,1.289 6.392,0.758 9.311,0.6 0.987,0.108 2.042,-0.04 2.725,0.705 l -2.873,-0.343 c 1.441,0.684 2.974,1.205 4.021,2.432 l 0.062,0.369 c -1.962,-0.388 -3.686,-0.623 -5.688,-0.511 -1.804,-0.668 -2.823,-0.839 -4.689,-0.031 -5.385,2.334 -7.074,9.546 -12.314,12.554 -3.89,-5.139 -6.574,-11.037 -10.63,-16.134 z"
         id="path95" /><path
         fill="#fefefe"
         d="m 862.133,306.998 c 1.524,-0.061 3.14,-0.132 4.605,0.351 2.173,0.717 4.122,2.316 5.122,4.389 0.897,1.859 0.886,4.038 0.097,5.931 -1.071,2.571 -3.385,3.782 -5.793,4.871 -1.339,0.197 -2.737,0.454 -4.08,0.175 -2.106,-0.439 -4.012,-1.76 -5.054,-3.655 -1.076,-1.955 -1.123,-4.419 -0.441,-6.51 0.966,-2.962 2.898,-4.162 5.544,-5.552 z"
         id="path96" /><path
         fill="#bbb1da"
         d="m 270.264,870.828 c 10.038,-0.351 18.475,7.471 18.882,17.508 0.408,10.036 -7.367,18.516 -17.401,18.981 -10.114,0.468 -18.678,-7.383 -19.089,-17.5 -0.41,-10.117 7.489,-18.636 17.608,-18.989 z"
         id="path97" /><path
         fill="#fefefe"
         d="m 268.886,875.289 c 7.551,-1.1 14.559,4.144 15.633,11.699 1.073,7.555 -4.195,14.544 -11.753,15.592 -7.522,1.043 -14.47,-4.194 -15.539,-11.712 -1.069,-7.518 4.145,-14.485 11.659,-15.579 z"
         id="path98" /><path
         fill="#e3e2ef"
         d="m 829.623,157.227 c 9.855,-1.723 19.236,4.883 20.936,14.742 1.7,9.859 -4.928,19.225 -14.791,20.901 -9.831,1.671 -19.159,-4.93 -20.853,-14.756 -1.694,-9.827 4.885,-19.17 14.708,-20.887 z"
         id="path99" /><path
         fill="#fefefe"
         d="m 830.002,162.443 c 6.937,-1.466 13.766,2.911 15.331,9.827 1.565,6.916 -2.715,13.806 -9.608,15.469 -5.981,1.442 -12.152,-1.516 -14.774,-7.081 -1.688,-3.586 -1.645,-7.748 0.119,-11.297 1.764,-3.55 5.054,-6.098 8.932,-6.918 z"
         id="path100" /><path
         fill="#bbb1da"
         d="m 373.509,68.0252 c 5.379,-1.3077 11.045,0.3824 14.828,4.4229 3.783,4.0405 5.097,9.8052 3.439,15.0862 -1.659,5.2809 -6.032,9.2596 -11.446,10.4121 -8.206,1.7468 -16.293,-3.4194 -18.158,-11.5989 -1.864,-8.1795 3.185,-16.3403 11.337,-18.3223 z"
         id="path101" /><path
         fill="#fefefe"
         d="m 373.943,72.1345 c 3.975,-1.1555 8.264,-0.0668 11.206,2.8447 2.943,2.9115 4.077,7.1886 2.963,11.1753 -1.113,3.9868 -4.299,7.0573 -8.325,8.0227 -6.022,1.4446 -12.097,-2.1812 -13.684,-8.1679 -1.588,-5.9867 1.893,-12.1459 7.84,-13.8748 z"
         id="path102" /><path
         fill="#bbb1da"
         d="m 65.3535,672.259 c 8.0012,-0.14 14.6294,6.176 14.8746,14.175 0.2452,7.999 -5.9837,14.709 -13.9785,15.059 -5.2658,0.231 -10.2483,-2.39 -13.0418,-6.859 -2.7936,-4.47 -2.9661,-10.097 -0.4515,-14.729 2.5146,-4.633 7.3272,-7.554 12.5972,-7.646 z"
         id="path103" /><path
         fill="#fefefe"
         d="m 62.1779,678.686 c 4.4976,-1.725 9.5477,0.475 11.3462,4.944 1.7986,4.469 -0.3191,9.554 -4.7578,11.426 -2.9366,1.238 -6.3127,0.796 -8.8321,-1.155 -2.5193,-1.952 -3.7906,-5.111 -3.3256,-8.264 0.4649,-3.152 2.5938,-5.81 5.5693,-6.951 z"
         id="path104" /><path
         fill="#9c8cca"
         d="m 804.784,909.038 c 5.224,-0.268 10.187,2.304 12.979,6.728 2.792,4.424 2.979,10.01 0.489,14.611 -2.489,4.601 -7.268,7.5 -12.499,7.582 -7.891,0.124 -14.426,-6.097 -14.69,-13.984 -0.265,-7.888 5.84,-14.533 13.721,-14.937 z"
         id="path105" /><path
         fill="#fefefe"
         d="m 802.369,913.036 c 3.721,-1.121 7.757,-0.151 10.564,2.537 2.806,2.688 3.949,6.678 2.99,10.444 -0.959,3.766 -3.871,6.725 -7.622,7.743 -5.689,1.545 -11.565,-1.768 -13.187,-7.436 -1.623,-5.668 1.61,-11.588 7.255,-13.288 z"
         id="path106" /><path
         fill="#e3e2ef"
         d="m 810.493,368.226 c 5,0.486 10.465,4.163 14.85,6.485 26.256,13.901 57.822,36.423 76.857,59.585 8.069,9.82 16.647,20.869 22.395,32.224 l -0.097,0.465 c -2.711,-3.044 -4.82,-6.567 -7.192,-9.875 -3.687,-5.142 -7.566,-10.278 -11.581,-15.168 -5.796,-7.06 -14.12,-16.837 -20.873,-22.899 -4.638,-4.163 -9.88,-7.468 -14.976,-11.022 -6.907,-4.818 -13.69,-9.992 -20.871,-14.386 -4.98,-3.048 -10.214,-5.496 -15.36,-8.219 -0.606,0.931 -0.449,0.465 -0.592,1.352 -7.473,-6.227 -15.263,-12.117 -22.56,-18.542 z"
         id="path107" /><path
         fill="#9c8cca"
         d="m 407.996,896.845 c 5.682,-0.965 11.083,2.819 12.115,8.489 1.032,5.67 -2.689,11.114 -8.347,12.212 -3.719,0.722 -7.538,-0.611 -10,-3.49 -2.463,-2.879 -3.187,-6.859 -1.897,-10.421 1.29,-3.561 4.395,-6.155 8.129,-6.79 z"
         id="path108" /><path
         fill="#9c8cca"
         d="m 934.319,363.233 c 5.696,-0.742 10.926,3.241 11.728,8.928 0.801,5.687 -3.126,10.96 -8.805,11.821 -3.727,0.565 -7.47,-0.916 -9.802,-3.877 -2.332,-2.962 -2.894,-6.948 -1.471,-10.438 1.424,-3.491 4.612,-5.948 8.35,-6.434 z"
         id="path109" /><path
         fill="#8047bf"
         d="m 654.065,886.701 c 1.106,0.08 2.108,0.286 3.187,0.544 1.361,3.361 0.456,16.485 0.438,20.742 6.292,0.053 17.75,-1.277 23.252,0.772 0.989,0.369 1.318,0.366 1.763,1.364 -3.256,2.365 -20.374,1.233 -24.922,1.213 0.109,7.142 0.848,15.244 -0.436,22.268 -1.092,0.239 -1.191,0.228 -2.232,-0.183 -2.377,-3.394 -1.152,-17.546 -1.102,-22.206 -4.604,-0.182 -19.176,0.626 -22.404,-0.5 -0.708,-0.247 -0.67,-0.703 -0.933,-1.342 l 0.48,-0.737 c 5.268,-2.139 16.818,-0.939 22.88,-0.875 -0.079,-7.001 -0.347,-14.069 0.029,-21.06 z"
         id="path110" /><path
         fill="#59dff0"
         d="m 92.995,941.179 c 1.6731,0.132 3.4777,0.173 5.024,0.883 2.675,1.23 4.897,3.747 5.778,6.552 0.856,2.64 0.568,5.517 -0.794,7.935 -1.737,3.062 -4.1919,4.086 -7.4173,5.077 -2.127,-0.223 -4.2163,-0.684 -6.0624,-1.818 -2.5356,-1.558 -4.5451,-4.174 -5.1973,-7.096 -0.5592,-2.506 -0.1979,-5.382 1.3264,-7.498 1.9357,-2.686 4.1639,-3.592 7.3426,-4.035 z"
         id="path111" /><path
         fill="url(#gradient_13)"
         d="m 651.694,149.146 c 0.859,1.009 1.779,1.964 2.755,2.86 -5.358,3.751 -10.3,10.038 -14.897,14.748 -10.428,10.767 -20.928,21.465 -31.498,32.093 -2.874,2.888 -6.805,7.949 -10.24,9.837 -0.786,-0.387 -2.313,0.258 -3.551,0.068 l 1.444,-1.641 -1.023,-0.277 c 9.024,-10.691 19.853,-20.452 29.819,-30.312 9.145,-9.048 17.899,-18.476 27.191,-27.376 z"
         id="path112"
         style="fill:url(#gradient_13)" /><path
         fill="#9c8cca"
         d="m 935.152,58.0711 c 5.306,-1.1252 10.542,2.1832 11.804,7.4584 1.262,5.2752 -1.91,10.5949 -7.151,11.9927 -3.512,0.9369 -7.257,-0.1057 -9.78,-2.7232 -2.523,-2.6175 -3.427,-6.3978 -2.362,-9.8736 1.066,-3.4759 3.933,-6.1002 7.489,-6.8543 z"
         id="path113" /><path
         fill="#9c8cca"
         d="m 145.511,120.587 c 1.483,-0.073 3.068,-0.199 4.542,0.012 2.873,0.41 5.611,2.037 7.261,4.435 1.549,2.247 2.082,5.042 1.469,7.702 -0.874,3.701 -3.123,5.568 -6.289,7.384 -1.85,0.378 -3.798,0.56 -5.643,0.051 -2.705,-0.747 -4.89,-2.569 -6.21,-5.03 -1.434,-2.696 -1.717,-5.857 -0.785,-8.764 0.995,-3.121 2.883,-4.299 5.655,-5.79 z"
         id="path114" /><path
         fill="#9b346e"
         d="m 854.15,297.333 c 3.471,-5.918 7.045,-11.94 9.715,-18.265 l 10.124,17.863 c -3.519,0.277 -7.026,0.558 -10.528,1.002 -2.919,0.158 -6.645,0.689 -9.311,-0.6 z"
         id="path115" /><path
         fill="#41287d"
         d="m 854.855,330.092 c 2.496,-0.363 5.393,-0.056 7.951,-0.048 3.849,-0.021 8.336,-0.493 12.09,0.341 -4.263,4.186 -7.222,9.849 -10.243,14.962 -3.442,-4.968 -6.593,-10.132 -9.798,-15.255 z"
         id="path116" /><path
         fill="#427080"
         d="m 54.1794,331.605 c 14.7269,1.908 28.1947,4.996 42.167,10.026 l -0.3895,2.304 C 86.1562,337.729 65.593,333.481 54.0575,331.95 Z"
         id="path117" /><path
         fill="#e3e2ef"
         d="m 54.0575,331.95 c -1.8857,0.156 -4.6233,0.442 -6.2362,-0.649 1.8258,-1.014 4.4636,-0.167 6.3581,0.304 z"
         id="path118" /></g></g></svg>
