<?xml version="1.0" encoding="UTF-8" standalone="no"?>
<!-- Created with Inkscape (http://www.inkscape.org/) -->

<svg
   width="78.70031mm"
   height="89.254807mm"
   viewBox="0 0 78.70031 89.254807"
   version="1.1"
   id="svg5"
   xml:space="preserve"
   inkscape:version="1.2.1 (9c6d41e410, 2022-07-14)"
   sodipodi:docname="js6.svg"
   xmlns:inkscape="http://www.inkscape.org/namespaces/inkscape"
   xmlns:sodipodi="http://sodipodi.sourceforge.net/DTD/sodipodi-0.dtd"
   xmlns="http://www.w3.org/2000/svg"
   xmlns:svg="http://www.w3.org/2000/svg"><sodipodi:namedview
     id="namedview7"
     pagecolor="#ffffff"
     bordercolor="#000000"
     borderopacity="0.25"
     inkscape:showpageshadow="2"
     inkscape:pageopacity="0.0"
     inkscape:pagecheckerboard="0"
     inkscape:deskcolor="#d1d1d1"
     inkscape:document-units="mm"
     showgrid="false"
     inkscape:zoom="0.70199214"
     inkscape:cx="349.00675"
     inkscape:cy="175.21564"
     inkscape:window-width="1920"
     inkscape:window-height="986"
     inkscape:window-x="-11"
     inkscape:window-y="-11"
     inkscape:window-maximized="1"
     inkscape:current-layer="g50" /><defs
     id="defs2" /><g
     inkscape:label="Layer 1"
     inkscape:groupmode="layer"
     id="layer1"
     transform="translate(-12.662535,-101.9767)"><g
       id="g50"
       transform="matrix(0.26458333,0,0,0.26458333,12.662535,80.139052)"><polygon
         fill="#ffcc33"
         points="148.543,419.877 27.07,386.156 0,82.536 297.45,82.536 270.352,386.107 "
         id="polygon9" /><polygon
         fill="#f8dc3d"
         points="148.725,394.064 247.153,366.777 270.311,107.361 148.725,107.361 "
         id="polygon11" /><g
         id="g25">
	<g
   id="g17">
		<polygon
   fill="#ffffff"
   points="148.93,316.711 148.93,355.453 225.27,334.295 225.828,328.004 235.486,229.97 148.93,209.97 148.93,247.207 194.783,257.207 190.461,305.5 "
   id="polygon13" />
		<polygon
   fill="#ffffff"
   points="224.926,142.736 148.586,121.578 148.586,160.32 224.967,181.838 "
   id="polygon15" />
	</g>
	<g
   id="g23">
		<g
   id="g21">
			<polygon
   fill="#ebebeb"
   points="148.715,160.352 148.715,121.608 148.543,121.56 72.264,142.736 62.424,219.97 62.406,219.97 62.412,220.049 62.406,220.104 62.418,220.104 65.727,257.207 65.908,257.207 72.607,334.295 148.887,355.471 149.059,355.422 149.059,316.678 148.895,316.725 107.422,305.525 103.277,257.207 149.059,247.207 149.059,209.97 100.803,219.97 107.078,171.505 148.551,160.306 "
   id="polygon19" />
		</g>
	</g>
</g></g></g></svg>
