<?xml version="1.0" encoding="UTF-8" standalone="no"?>
<!-- Created with Inkscape (http://www.inkscape.org/) -->

<svg
   width="78.70031mm"
   height="89.254807mm"
   viewBox="0 0 78.70031 89.254807"
   version="1.1"
   id="svg5"
   xml:space="preserve"
   inkscape:version="1.2.1 (9c6d41e410, 2022-07-14)"
   sodipodi:docname="php.svg"
   xmlns:inkscape="http://www.inkscape.org/namespaces/inkscape"
   xmlns:sodipodi="http://sodipodi.sourceforge.net/DTD/sodipodi-0.dtd"
   xmlns="http://www.w3.org/2000/svg"
   xmlns:svg="http://www.w3.org/2000/svg"><sodipodi:namedview
     id="namedview7"
     pagecolor="#ffffff"
     bordercolor="#000000"
     borderopacity="0.25"
     inkscape:showpageshadow="2"
     inkscape:pageopacity="0.0"
     inkscape:pagecheckerboard="0"
     inkscape:deskcolor="#d1d1d1"
     inkscape:document-units="mm"
     showgrid="false"
     inkscape:zoom="0.70199214"
     inkscape:cx="381.77065"
     inkscape:cy="202.28147"
     inkscape:window-width="1920"
     inkscape:window-height="986"
     inkscape:window-x="-11"
     inkscape:window-y="-11"
     inkscape:window-maximized="1"
     inkscape:current-layer="g50" /><defs
     id="defs2"><clipPath
       clipPathUnits="userSpaceOnUse"
       id="clipPath3444"><path
         d="M 11.52,162 C 11.52,81.677 135.307,16.561 288,16.561 v 0 c 152.693,0 276.481,65.116 276.481,145.439 v 0 c 0,80.322 -123.788,145.439 -276.481,145.439 v 0 C 135.307,307.439 11.52,242.322 11.52,162"
         id="path3446" /></clipPath><radialGradient
       cx="0"
       cy="0"
       fx="0"
       fy="0"
       gradientTransform="matrix(363.05789,0,0,-363.05789,177.52002,256.30713)"
       gradientUnits="userSpaceOnUse"
       id="radialGradient3452"
       r="1"
       spreadMethod="pad"><stop
         id="stop3454"
         offset="0"
         style="stop-opacity:1;stop-color:#aeb2d5" /><stop
         id="stop3456"
         offset="0.3"
         style="stop-opacity:1;stop-color:#aeb2d5" /><stop
         id="stop3458"
         offset="0.75"
         style="stop-opacity:1;stop-color:#484c89" /><stop
         id="stop3460"
         offset="1"
         style="stop-opacity:1;stop-color:#484c89" /></radialGradient><clipPath
       clipPathUnits="userSpaceOnUse"
       id="clipPath3468"><path
         d="M 0,324 H 576 V 0 H 0 Z"
         id="path3470" /></clipPath><clipPath
       clipPathUnits="userSpaceOnUse"
       id="clipPath3480"><path
         d="M 0,324 H 576 V 0 H 0 Z"
         id="path3482" /></clipPath></defs><g
     inkscape:label="Layer 1"
     inkscape:groupmode="layer"
     id="layer1"
     transform="translate(-0.97852445,-94.826912)"><g
       id="g50"
       transform="matrix(0.26458333,0,0,0.26458333,0.97852445,72.989262)"><polygon
         fill="#ffcc33"
         points="27.07,386.156 0,82.536 297.45,82.536 270.352,386.107 148.543,419.877 "
         id="polygon9"
         style="fill:#6c7eb7;fill-opacity:1" /><polygon
         fill="#f8dc3d"
         points="270.311,107.361 148.725,107.361 148.725,394.064 247.153,366.777 "
         id="polygon11"
         style="fill:#9aa0c6;fill-opacity:1" /><g
         id="g7372"
         transform="translate(331.89064,-231.48925)"><path
           d="m -270.96347,473.71551 c 6.38515,0 11.15191,-1.2349 14.16798,-3.66916 2.9838,-2.40929 5.04461,-6.58351 6.12477,-12.4061 1.00712,-5.4424 0.62343,-9.24255 -1.13996,-11.29331 -1.80308,-2.0946 -5.70138,-3.15688 -11.58642,-3.15688 h -10.20404 l -5.65693,30.52545 z m -33.37475,37.60179 c -0.47365,0 -0.9235,-0.22201 -1.22463,-0.60608 -0.30167,-0.3835 -0.42391,-0.88856 -0.33342,-1.37641 l 14.99199,-80.89298 c 0.14502,-0.782 0.79861,-1.347 1.55857,-1.347 h 32.31154 c 10.15484,0 17.71328,2.8916 22.46417,8.59541 4.77629,5.73379 6.25125,13.74866 4.3836,23.82149 -0.75997,4.10374 -2.06716,7.91497 -3.88507,11.32717 -1.82001,3.41607 -4.22535,6.57684 -7.1504,9.39628 -3.50138,3.43661 -7.46425,5.9286 -11.76793,7.39493 -4.23542,1.44691 -9.67483,2.18063 -16.16687,2.18063 h -13.0836 l -3.73636,20.159 c -0.14501,0.78256 -0.79808,1.34756 -1.55804,1.34756 z"
           id="path3486"
           style="opacity:1;fill:#ffffff;fill-opacity:1;fill-rule:nonzero;stroke:none;stroke-width:0.818111" /><path
           d="m -186.34524,512.51149 c -0.47346,0 -0.92208,-0.19947 -1.22274,-0.54456 -0.30172,-0.34459 -0.42378,-0.7979 -0.33343,-1.23675 l 6.62148,-32.15965 c 0.62988,-3.05843 0.47453,-5.25364 -0.43699,-6.1812 -0.558,-0.567 -2.2341,-1.51799 -7.19004,-1.51799 h -11.99592 l -8.32507,40.42934 c -0.14479,0.70314 -0.79737,1.21081 -1.55617,1.21081 h -16.64487 c -0.47344,0 -0.92206,-0.19947 -1.22325,-0.54456 -0.30119,-0.34459 -0.42326,-0.7984 -0.33291,-1.23675 l 14.96876,-72.68375 c 0.14478,-0.70264 0.79736,-1.21031 1.55616,-1.21031 h 16.64485 c 0.47346,0 0.92209,0.19948 1.22327,0.54407 0.3012,0.34509 0.42325,0.79839 0.3329,1.23724 l -3.6122,17.54272 h 12.90479 c 9.83103,0 16.49742,1.63569 20.38017,5.00081 3.95777,3.43293 5.19266,8.92196 3.67085,16.31645 l -6.96442,33.82327 c -0.14478,0.70314 -0.79684,1.21081 -1.55616,1.21081 z"
           id="path3494"
           style="opacity:1;fill:#ffffff;fill-opacity:1;fill-rule:nonzero;stroke:none;stroke-width:0.779901" /><path
           d="m -116.99957,477.98906 c 6.8083,0 11.89095,-1.2349 15.10691,-3.66917 3.181533,-2.40872 5.378923,-6.58294 6.531223,-12.40609 1.07386,-5.44241 0.66476,-9.24255 -1.21606,-11.2933 -1.92258,-2.09461 -6.079223,-3.15689 -12.354253,-3.15689 h -10.88029 l -6.03182,30.52545 z m -35.58597,37.60179 c -0.50504,0 -0.98469,-0.22201 -1.30578,-0.60608 -0.32165,-0.38349 -0.45258,-0.88856 -0.35609,-1.37642 l 15.98553,-80.89297 c 0.15519,-0.782 0.85154,-1.347 1.66244,-1.347 h 34.45228 c 10.828373,0 18.887163,2.89159 23.953473,8.59541 5.0928,5.73323 6.66495,13.74811 4.67408,23.82149 -0.81146,4.10374 -2.20471,7.91497 -4.14308,11.32716 -1.94064,3.41608 -4.50539,6.57685 -7.62428,9.39629 -3.73342,3.4366 -7.9589,5.9286 -12.54781,7.39493 -4.516093,1.44691 -10.315983,2.18063 -17.238273,2.18063 h -13.95121 l -3.98228,20.159 c -0.15518,0.78255 -0.85153,1.34756 -1.66243,1.34756 z"
           id="path3502"
           style="opacity:1;fill:#ffffff;fill-opacity:1;fill-rule:nonzero;stroke:none;stroke-width:0.82903" /></g></g></g></svg>
