<?xml version="1.0" encoding="UTF-8" standalone="no"?>
<!-- Created with Inkscape (http://www.inkscape.org/) -->

<svg
   width="117.35847mm"
   height="14.022141mm"
   viewBox="0 0 117.35847 14.022141"
   version="1.1"
   id="svg5"
   xml:space="preserve"
   inkscape:version="1.2.1 (9c6d41e410, 2022-07-14)"
   sodipodi:docname="ironcraft2.svg"
   xmlns:inkscape="http://www.inkscape.org/namespaces/inkscape"
   xmlns:sodipodi="http://sodipodi.sourceforge.net/DTD/sodipodi-0.dtd"
   xmlns:xlink="http://www.w3.org/1999/xlink"
   xmlns="http://www.w3.org/2000/svg"
   xmlns:svg="http://www.w3.org/2000/svg"><sodipodi:namedview
     id="namedview7"
     pagecolor="#ffffff"
     bordercolor="#000000"
     borderopacity="0.25"
     inkscape:showpageshadow="2"
     inkscape:pageopacity="0.0"
     inkscape:pagecheckerboard="0"
     inkscape:deskcolor="#d1d1d1"
     inkscape:document-units="mm"
     showgrid="false"
     inkscape:zoom="1.9855336"
     inkscape:cx="133.46538"
     inkscape:cy="45.327865"
     inkscape:window-width="1920"
     inkscape:window-height="986"
     inkscape:window-x="-11"
     inkscape:window-y="-11"
     inkscape:window-maximized="1"
     inkscape:current-layer="title" /><defs
     id="defs2" /><g
     inkscape:label="Layer 1"
     inkscape:groupmode="layer"
     id="layer1"
     transform="translate(-31.400711,-120.00543)"><g
       id="logo-group"
       transform="matrix(0.26458333,0,0,0.26458333,-45.387192,25.415828)"><image
         xlink:href=""
         id="container"
         x="272"
         y="144"
         width="480"
         height="480"
         style="display:none" /><g
         id="logo-center"><image
           xlink:href=""
           id="icon_container"
           x="0"
           y="0"
           style="display:none" /><g
           id="slogan"
           style="font-style:normal;font-weight:700;font-size:32px;line-height:1;font-family:'Comfortaa Bold Alt2';font-variant-ligatures:none;text-align:center;text-anchor:middle" /><g
           id="title"
           style="font-style:normal;font-weight:400;font-size:72px;line-height:1;font-family:'Brandmark Dots 1 Color';font-variant-ligatures:normal;text-align:center;text-anchor:middle"><g
             id="path152966"
             aria-label="i"
             transform="translate(-2.91656,409.2)"><path
               class="c3"
               d="m 95.21143,78.2458 c 0,-2.59277 2.16016,-4.75293 4.75293,-4.75293 2.66406,0 4.82422,2.16016 4.82422,4.75293 0,2.66406 -2.16016,4.82422 -4.82422,4.82422 -2.59278,0 -4.75293,-2.16015 -4.75293,-4.82422 z"
               transform="translate(197.92713,-125.18887)"
               stroke-width="0"
               stroke-linejoin="miter"
               stroke-miterlimit="2"
               fill="#35bbaf"
               stroke="#35bbaf"
               id="path144"
               style="fill:#12b0fb;fill-opacity:1" /><path
               class="c1"
               d="M 95.21143,120.44112 V 92.57491 c 0,-2.5918 2.16016,-4.75195 4.75293,-4.75195 2.66406,0 4.82422,2.16016 4.82422,4.75195 v 27.86621 c 0,2.59277 -2.16016,4.75293 -4.82422,4.75293 -2.59278,0 -4.75293,-2.16016 -4.75293,-4.75293 z"
               transform="translate(197.92713,-125.18887)"
               stroke-width="0"
               stroke-linejoin="miter"
               stroke-miterlimit="2"
               fill="#424d70"
               stroke="#424d70"
               id="path146"
               style="fill:#ffffff" /></g><g
             id="path152968"
             aria-label="r"
             transform="translate(-2.91656,409.2)"><path
               class="c1"
               d="m 117.85791,90.84639 c 0,-9.79199 -6.69727,-16.05664 -16.99414,-16.05664 H 85.3833 c -2.59277,0 -4.75293,2.16016 -4.75293,4.75195 v 40.89941 c 0,2.59277 2.16016,4.75293 4.75293,4.75293 2.66406,0 4.82422,-2.16016 4.82422,-4.75293 v -12.96094 h 10.44043 l 2.16016,3.45605 c 1.36816,2.23242 4.32031,2.88086 6.55273,1.44043 4.39258,-2.80859 0.86426,-7.41699 0.86426,-7.41699 4.96875,-2.80761 7.63281,-7.91991 7.63281,-14.11327 z m -17.20996,8.35352 H 90.20752 V 84.07784 h 10.65625 c 4.96875,0 7.41699,2.95313 7.41699,7.34473 0,4.03222 -1.94433,7.77734 -7.63281,7.77734 z"
               transform="translate(235.05994,-125.18975)"
               stroke-width="0"
               stroke-linejoin="miter"
               stroke-miterlimit="2"
               fill="#424d70"
               stroke="#424d70"
               id="path149"
               style="fill:#ffffff" /><path
               class="c3"
               d="m 114.61768,125.12178 c -2.59277,0 -4.75293,-2.16016 -4.75293,-4.75195 0,-2.66504 2.16016,-4.8252 4.75293,-4.8252 2.66406,0 4.75195,2.16016 4.75195,4.8252 0,2.59179 -2.08789,4.75195 -4.75195,4.75195 z"
               transform="translate(235.05994,-125.18975)"
               stroke-width="0"
               stroke-linejoin="miter"
               stroke-miterlimit="2"
               fill="#35bbaf"
               stroke="#35bbaf"
               id="path151"
               style="fill:#12b0fb;fill-opacity:1" /></g><g
             id="path152970"
             aria-label="o"
             transform="translate(-2.91656,409.2)"><path
               class="c1"
               d="m 99.96436,126.48994 c -14.61719,0 -26.49902,-11.88086 -26.49902,-26.57031 0,-8.20898 3.74512,-15.69727 10.22559,-20.80957 2.01563,-1.58398 5.04004,-1.22461 6.69629,0.86426 1.58398,2.01563 1.22363,5.04004 -0.86426,6.69629 -4.10449,3.24023 -6.48047,7.99219 -6.48047,13.24902 0,9.36035 7.56055,16.99316 16.92188,16.99316 9.36035,0 16.99316,-7.63281 16.99316,-16.99316 0,-5.25684 -2.37598,-10.00879 -6.55273,-13.24902 -2.08789,-1.65625 -2.44824,-4.68066 -0.79199,-6.69629 1.58398,-2.08887 4.6084,-2.44824 6.69629,-0.86426 6.48047,5.1123 10.22559,12.60059 10.22559,20.80957 -2e-5,14.68946 -11.95315,26.57031 -26.57033,26.57031 z"
               transform="translate(286.79747,-125.18887)"
               stroke-width="0"
               stroke-linejoin="miter"
               stroke-miterlimit="2"
               fill="#424d70"
               stroke="#424d70"
               id="path154"
               style="fill:#ffffff" /><path
               class="c3"
               d="m 99.96436,73.49287 c 2.66406,0 4.82422,2.16016 4.82422,4.8252 0,2.5918 -2.16016,4.75195 -4.82422,4.75195 -2.59277,0 -4.75293,-2.16016 -4.75293,-4.75195 0,-2.66504 2.16015,-4.8252 4.75293,-4.8252 z"
               transform="translate(286.79747,-125.18887)"
               stroke-width="0"
               stroke-linejoin="miter"
               stroke-miterlimit="2"
               fill="#35bbaf"
               stroke="#35bbaf"
               id="path156"
               style="fill:#12b0fb;fill-opacity:1" /></g><g
             id="path152972"
             aria-label="n"
             transform="translate(-2.91656,409.2)"><path
               class="c1"
               d="M 112.31299,108.12862 V 93.8708 c 0,-2.66406 2.16016,-4.82422 4.75195,-4.82422 2.66504,0 4.8252,2.16016 4.8252,4.75293 v 26.06543 c 0,1.65625 -0.36035,3.09668 -1.80078,4.32031 -1.15234,0.86426 -2.95215,1.5127 -4.96777,0.50488 -1.08008,-0.57617 -1.65625,-1.22461 -2.44824,-2.16016 L 87.68701,91.92647 v 28.51465 c 0,2.59277 -2.16016,4.75293 -4.82422,4.75293 -2.59277,0 -4.75293,-2.16016 -4.75293,-4.75293 v -39.8916 c 0,-1.7998 0.21582,-3.95996 2.52051,-5.18359 1.7998,-1.00879 4.17578,-0.86426 6.4082,1.72754 z"
               transform="translate(344.1742,-125.18949)"
               stroke-width="0"
               stroke-linejoin="miter"
               stroke-miterlimit="2"
               fill="#424d70"
               stroke="#424d70"
               id="path159"
               style="fill:#ffffff" /><path
               class="c3"
               d="m 121.89014,79.5417 c 0,2.66406 -2.16016,4.75293 -4.75293,4.75293 -2.66406,0 -4.82422,-2.08887 -4.82422,-4.75293 0,-2.66406 2.16016,-4.75195 4.82422,-4.75195 2.59277,0 4.75293,2.08789 4.75293,4.75195 z"
               transform="translate(344.1742,-125.18949)"
               stroke-width="0"
               stroke-linejoin="miter"
               stroke-miterlimit="2"
               fill="#35bbaf"
               stroke="#35bbaf"
               id="path161"
               style="fill:#12b0fb;fill-opacity:1" /></g><g
             id="path152974"
             aria-label="c"
             transform="translate(-2.91656,409.2)"><path
               class="c1"
               d="m 95.49951,114.89717 c 2.73633,1.58398 5.6167,2.37598 9.14502,2.73633 3.45605,0.35938 4.89648,2.08789 4.89648,4.32031 0,2.37598 -1.58496,4.53613 -6.04883,4.53613 -3.67285,0 -7.34473,-0.79199 -11.0166,-2.44824 -9.14502,-4.24805 -15.48145,-13.39355 -15.48145,-24.0498 0,-14.68945 11.88086,-26.49902 26.49805,-26.49902 4.82422,0 11.59277,0.93652 17.06543,5.40137 2.01563,1.65527 2.16016,4.53613 0.64844,6.69629 -1.29688,1.94434 -3.96094,2.01563 -6.625,0.57617 -2.87988,-1.65625 -6.55273,-3.09668 -11.08887,-3.09668 -9.36084,0 -16.92139,7.56055 -16.92139,16.92188 1e-5,6.48046 3.52833,11.95311 8.92872,14.90526 z"
               transform="translate(426.70618,-125.18888)"
               stroke-width="0"
               stroke-linejoin="miter"
               stroke-miterlimit="2"
               fill="#424d70"
               stroke="#424d70"
               id="path164"
               style="fill:#ffffff" /><path
               class="c3"
               d="m 113.42871,116.9128 c 0,-2.5918 2.16016,-4.75195 4.75293,-4.75195 2.66406,0 4.82422,2.16016 4.82422,4.75195 0,2.66406 -2.16016,4.82422 -4.82422,4.82422 -2.59277,-1e-5 -4.75293,-2.16016 -4.75293,-4.82422 z"
               transform="translate(426.70618,-125.18888)"
               stroke-width="0"
               stroke-linejoin="miter"
               stroke-miterlimit="2"
               fill="#35bbaf"
               stroke="#35bbaf"
               id="path166"
               style="fill:#12b0fb;fill-opacity:1" /></g><g
             id="path152976"
             aria-label="r"
             transform="translate(-2.91656,409.2)"><path
               class="c1"
               d="m 117.85791,90.84639 c 0,-9.79199 -6.69727,-16.05664 -16.99414,-16.05664 H 85.3833 c -2.59277,0 -4.75293,2.16016 -4.75293,4.75195 v 40.89941 c 0,2.59277 2.16016,4.75293 4.75293,4.75293 2.66406,0 4.82422,-2.16016 4.82422,-4.75293 v -12.96094 h 10.44043 l 2.16016,3.45605 c 1.36816,2.23242 4.32031,2.88086 6.55273,1.44043 4.39258,-2.80859 0.86426,-7.41699 0.86426,-7.41699 4.96875,-2.80761 7.63281,-7.91991 7.63281,-14.11327 z m -17.20996,8.35352 H 90.20752 V 84.07784 h 10.65625 c 4.96875,0 7.41699,2.95313 7.41699,7.34473 0,4.03222 -1.94433,7.77734 -7.63281,7.77734 z"
               transform="translate(478.05994,-125.18975)"
               stroke-width="0"
               stroke-linejoin="miter"
               stroke-miterlimit="2"
               fill="#424d70"
               stroke="#424d70"
               id="path169"
               style="fill:#ffffff" /><path
               class="c3"
               d="m 114.61768,125.12178 c -2.59277,0 -4.75293,-2.16016 -4.75293,-4.75195 0,-2.66504 2.16016,-4.8252 4.75293,-4.8252 2.66406,0 4.75195,2.16016 4.75195,4.8252 0,2.59179 -2.08789,4.75195 -4.75195,4.75195 z"
               transform="translate(478.05994,-125.18975)"
               stroke-width="0"
               stroke-linejoin="miter"
               stroke-miterlimit="2"
               fill="#35bbaf"
               stroke="#35bbaf"
               id="path171"
               style="fill:#12b0fb;fill-opacity:1" /></g><g
             id="path152978"
             aria-label="a"
             transform="translate(-2.91656,409.2)"><path
               class="c1"
               d="M 117.13755,104.6003 104.32066,77.52608 c -0.79199,-1.65625 -2.52051,-2.73633 -4.32031,-2.73633 -1.87207,0 -3.52832,1.08008 -4.32031,2.73633 l -19.44189,40.82715 c -1.08008,2.37598 -0.07178,5.25684 2.3042,6.4082 2.37598,1.08008 5.18457,0.0723 6.33643,-2.30371 l 4.53662,-9.50488 h 24.19385 c 1.65625,0 3.09619,-0.86426 3.96045,-2.16016 1.65623,-2.44824 0.35984,-4.53613 -0.43215,-6.19238 z m -23.83398,0.14355 6.69678,-14.11328 6.76855,14.11328 z"
               transform="translate(527.52865,-125.18975)"
               stroke-width="0"
               stroke-linejoin="miter"
               stroke-miterlimit="2"
               fill="#424d70"
               stroke="#424d70"
               id="path174"
               style="fill:#ffffff" /><path
               class="c3"
               d="m 124.19419,120.44112 c 0,2.59277 -2.16016,4.75293 -4.82422,4.75293 -2.59229,0 -4.75244,-2.16016 -4.75244,-4.75293 0,-2.66406 2.16016,-4.82422 4.75244,-4.82422 2.66406,0 4.82422,2.16015 4.82422,4.82422 z"
               transform="translate(527.52865,-125.18975)"
               stroke-width="0"
               stroke-linejoin="miter"
               stroke-miterlimit="2"
               fill="#35bbaf"
               stroke="#35bbaf"
               id="path176"
               style="fill:#12b0fb;fill-opacity:1" /></g><g
             id="path152980"
             aria-label="f"
             transform="translate(-2.91656,409.2)"><path
               class="c1"
               d="m 92.76367,84.36592 v 36.0752 c 0,2.59277 -2.16016,4.75293 -4.82422,4.75293 -2.59277,0 -4.75293,-2.16016 -4.75293,-4.75293 V 79.5417 c 0,-2.5918 2.16016,-4.75195 4.75293,-4.75195 h 24.12207 c 2.66406,0 4.75195,2.16016 4.75195,4.75195 0,2.66406 -2.08789,4.82422 -4.75195,4.82422 z"
               transform="translate(576.75379,-125.18975)"
               stroke-width="0"
               stroke-linejoin="miter"
               stroke-miterlimit="2"
               fill="#424d70"
               stroke="#424d70"
               id="path179"
               style="fill:#ffffff" /><path
               class="c3"
               d="m 102.26855,96.39131 c 2.66406,0 4.82422,2.16016 4.82422,4.82422 0,2.59277 -2.16016,4.75293 -4.82422,4.75293 -2.59277,0 -4.75293,-2.16016 -4.75293,-4.75293 1e-5,-2.66406 2.16016,-4.82422 4.75293,-4.82422 z"
               transform="translate(576.75379,-125.18975)"
               stroke-width="0"
               stroke-linejoin="miter"
               stroke-miterlimit="2"
               fill="#35bbaf"
               stroke="#35bbaf"
               id="path181"
               style="fill:#12b0fb;fill-opacity:1" /></g><g
             id="path152982"
             aria-label="t"
             transform="translate(-2.91656,409.2)"><path
               class="c1"
               d="m 104.75244,120.44112 c 0,2.59277 -2.08789,4.75293 -4.75293,4.75293 -2.66406,0 -4.75195,-2.16016 -4.75195,-4.75293 V 84.36592 H 84.80615 c -2.5918,0 -4.75195,-2.16016 -4.75195,-4.82422 0,-2.5918 2.16016,-4.75195 4.75195,-4.75195 h 15.19336 c 2.88086,0 4.75293,2.16016 4.75293,4.75195 z"
               transform="translate(616.75236,-125.18975)"
               stroke-width="0"
               stroke-linejoin="miter"
               stroke-miterlimit="2"
               fill="#424d70"
               stroke="#424d70"
               id="path184"
               style="fill:#ffffff" /><path
               class="c3"
               d="m 119.9458,79.5417 c 0,2.66406 -2.16016,4.82422 -4.75293,4.82422 -2.66406,0 -4.82422,-2.16016 -4.82422,-4.82422 0,-2.5918 2.16016,-4.75195 4.82422,-4.75195 2.59277,0 4.75293,2.16016 4.75293,4.75195 z"
               transform="translate(616.75236,-125.18975)"
               stroke-width="0"
               stroke-linejoin="miter"
               stroke-miterlimit="2"
               fill="#35bbaf"
               stroke="#35bbaf"
               id="path186"
               style="fill:#12b0fb;fill-opacity:1" /></g></g><image
           xlink:href=""
           id="icon"
           x="0"
           y="0"
           style="display:none" /></g></g></g></svg>
