<?xml version="1.0"?>
<svg width="747" height="435" xmlns="http://www.w3.org/2000/svg" xmlns:svg="http://www.w3.org/2000/svg">
 <!-- PHP icon at the back, much smaller and just above HTML -->
 <!-- CSS icon far left and high behind HTML -->
 <!-- JS icon far right and high, visible behind HTML -->
 <!-- HTML icon center, in front -->
 <g class="layer">
  <title>Layer 1</title>
  <g id="css-icon" transform="rotate(-5.38014 174.117 199.2) matrix(0.7 0 0 0.7 0 0)">
   <path d="m64.1,489.39l-41.09,-460.82l451.46,0l-41.13,460.75l-184.88,51.25l-184.36,-51.18z" fill="#264de4" id="svg_7"/>
   <path d="m398.13,459.98l35.15,-393.73l-184.54,0l0,435.14l149.39,-41.41z" fill="#2965f1" id="svg_8"/>
   <path d="m117.2,237.16l5.07,56.52l126.47,0l0,-56.52l-131.54,0zm-5.04,-57.87l136.58,0l0,-56.52l-141.72,0l5.14,56.52zm136.58,204.65l-0.25,0.07l-62.94,-17l-4.03,-45.07l-56.73,0l7.92,88.74l115.77,32.14l0.26,-0.08l0,-58.8z" fill="#ebebeb" id="svg_9"/>
   <path d="m248.55,237.16l0,56.52l69.59,0l-6.56,73.3l-63.04,17.01l0,58.8l115.87,-32.11l0.85,-9.55l13.28,-148.79l1.38,-15.18l10.2,-114.39l-141.57,0l0,56.52l79.63,0l-5.14,57.87l-74.49,0z" fill="#fff" id="svg_10"/>
  </g>
  <g id="js-icon" transform="rotate(5.53224 574.025 203.345) matrix(1.05297 0 0 1.06743 -28.742 -33.4759)">
   <polygon fill="#ffcc33" id="svg_11" points="572.2613916397095,390.53025817871094 450.788369178772,356.8092498779297 423.7183618545532,53.18927001953125 721.1683740615845,53.18927001953125 694.070351600647,356.76023864746094 "/>
   <polygon fill="#f8dc3d" id="svg_12" points="572.443398475647,364.71726989746094 670.871376991272,337.43028259277344 694.029335975647,78.01426696777344 572.443398475647,78.01426696777344 "/>
   <g id="svg_13">
    <polygon fill="#ffffff" id="svg_14" points="572.6483545303345,287.36427307128906 572.6483545303345,326.1062774658203 648.988320350647,304.9482879638672 649.546425819397,298.6572723388672 659.204384803772,200.62327575683594 572.6483545303345,180.62327575683594 572.6483545303345,217.8602752685547 618.5013818740845,227.8602752685547 614.1793603897095,276.1532745361328 "/>
    <polygon fill="#ffffff" id="svg_15" points="648.644326210022,113.38926696777344 572.3043603897095,92.23127746582031 572.3043603897095,130.97328186035156 648.685341835022,152.4912567138672 "/>
   </g>
   <g id="svg_16">
    <polygon fill="#ebebeb" id="svg_17" points="572.433388710022,131.0052947998047 572.433388710022,92.26127624511719 572.2613916397095,92.21327209472656 495.9823389053345,113.38926696777344 486.1424036026001,190.62327575683594 486.12439823150635,190.62327575683594 486.13037967681885,190.70228576660156 486.12439823150635,190.7572784423828 486.1364221572876,190.7572784423828 489.4453821182251,227.8602752685547 489.6264123916626,227.8602752685547 496.3253564834595,304.9482879638672 572.6053857803345,326.12428283691406 572.777382850647,326.0752716064453 572.777382850647,287.33128356933594 572.613320350647,287.37828063964844 531.140419960022,276.1782684326172 526.995400428772,227.8602752685547 572.777382850647,217.8602752685547 572.777382850647,180.62327575683594 524.5214014053345,190.62327575683594 530.796425819397,142.1582794189453 572.269326210022,130.9592742919922 "/>
   </g>
  </g>
  <g id="html-icon" transform="matrix(0.85 0 0 0.85 0 0)">
   <path d="m254.43,460l-41,-460l451,0l-41,460l-185,52" fill="#E34F26" id="svg_18"/>
   <path d="m439.43,472l149,-41l35,-394l-184,0" fill="#EF652A" id="svg_19"/>
   <path d="m439.43,208l-75,0l-5,-58l80,0l0,-56l-1,0l-141,0l1,15l14,156l127,0l0,-57zm0,147l-1,0l-63,-17l-4,-45l-30,0l-26,0l7,89l116,32l1,0l0,-59z" fill="#EBEBEB" id="svg_20"/>
   <path d="m438.43,208l0,57l70,0l-7,73l-63,17l0,59l116,-32l1,-10l13,-149l2,-15l-16,0l-116,0zm0,-114l0,35l0,21l0,0l137,0l0,0l0,0l1,-12l3,-29l1,-15l-142,0z" fill="#FFF" id="svg_21"/>
  </g>
 </g>
</svg>